<svg width="319" height="321" viewBox="0 0 319 321" fill="none" xmlns="http://www.w3.org/2000/svg">
<g clip-path="url(#clip0_1_88)">
<path d="M251.585 0H67.4153C30.1829 0 0 30.3719 0 67.8378V253.162C0 290.628 30.1829 321 67.4153 321H251.585C288.817 321 319 290.628 319 253.162V67.8378C319 30.3719 288.817 0 251.585 0Z" fill="url(#paint0_linear_1_88)"/>
<path fill-rule="evenodd" clip-rule="evenodd" d="M129.119 61.1354C114.248 61.1354 101.67 70.8113 96.9912 84.2016C90.5621 84.5235 84.3543 86.6675 79.0837 90.3862C73.8132 94.1049 69.6945 99.247 67.2027 105.219C64.7681 111.13 64.0262 117.609 65.0608 123.922C59.1041 128.716 54.566 135.059 51.939 142.265C49.3119 149.47 48.6963 157.262 50.1589 164.795C52.0674 174.535 57.3412 183.281 65.0456 189.482C64.1678 194.958 64.6206 200.566 66.3652 205.827C68.1097 211.088 71.0943 215.846 75.0637 219.694C81.0062 225.401 88.794 228.76 96.9988 229.156C102.315 244.365 117.476 254.056 133.585 251.924C145.092 250.395 154.533 243.111 159.5 233.26C164.467 243.119 173.908 250.395 185.415 251.924C201.517 254.056 216.692 244.365 222.001 229.156C230.206 228.759 237.993 225.4 243.936 219.694C247.906 215.846 250.89 211.088 252.635 205.827C254.379 200.566 254.832 194.958 253.954 189.482C261.659 183.281 266.933 174.535 268.841 164.795C270.304 157.262 269.688 149.47 267.061 142.265C264.434 135.059 259.896 128.716 253.939 123.922C254.927 117.723 254.304 111.257 251.797 105.219C249.305 99.2475 245.186 94.1058 239.915 90.3871C234.645 86.6685 228.438 84.5244 222.009 84.2016C217.33 70.8189 204.752 61.1354 189.881 61.1354C176.589 61.1354 165.151 68.9004 159.5 80.0895C153.849 68.9004 142.411 61.1354 129.119 61.1354ZM129.119 68.7782C143.846 68.7782 155.702 80.7087 155.702 95.5282C155.7 95.6123 155.7 95.6961 155.702 95.7801V217.813C155.709 223.941 153.621 229.884 149.79 234.647C145.959 239.41 140.617 242.703 134.66 243.973C128.704 245.243 122.494 244.414 117.072 241.625C111.651 238.835 107.347 234.255 104.883 228.652C105.779 228.484 106.683 228.346 107.579 228.116C108.553 227.855 109.384 227.215 109.889 226.337C110.394 225.459 110.531 224.416 110.271 223.436C110.012 222.455 109.375 221.619 108.503 221.111C107.631 220.602 106.593 220.464 105.619 220.725C101.2 221.912 96.5517 221.934 92.1219 220.788C87.6921 219.642 83.6301 217.367 80.3272 214.183C77.6496 211.584 75.5451 208.448 74.1503 204.977C72.7554 201.506 72.1014 197.778 72.2307 194.037C74.7979 195.351 77.4714 196.521 80.3272 197.285C81.3002 197.549 82.3373 197.413 83.2104 196.907C84.0836 196.401 84.7212 195.566 84.9831 194.587C85.245 193.608 85.1096 192.564 84.6068 191.686C84.104 190.807 83.2749 190.165 82.302 189.902C76.4558 188.336 71.1285 185.235 66.8661 180.915C62.6036 176.595 59.5593 171.212 58.0452 165.318C56.531 159.424 56.6015 153.231 58.2494 147.374C59.8973 141.516 63.0633 136.205 67.4229 131.984C69.1015 135.928 71.4408 139.635 74.57 142.792C74.9204 143.157 75.3394 143.448 75.8027 143.648C76.2661 143.849 76.7644 143.954 77.2686 143.958C77.7729 143.962 78.2729 143.866 78.7396 143.673C79.2064 143.481 79.6304 143.197 79.9869 142.838C80.3435 142.48 80.6255 142.053 80.8164 141.584C81.0074 141.114 81.1035 140.611 81.0991 140.104C81.0947 139.597 80.99 139.094 80.7909 138.628C80.5919 138.162 80.3026 137.741 79.9399 137.388C76.4255 133.857 73.9646 129.406 72.8364 124.539C71.7081 119.673 71.9575 114.585 73.5564 109.853C75.1553 105.122 78.0397 100.937 81.8824 97.7711C85.7252 94.6055 90.3725 92.5868 95.2974 91.9438C95.1683 93.1361 94.9405 94.3054 94.9405 95.5282C94.9405 96.5418 95.3406 97.5135 96.0528 98.2301C96.765 98.9468 97.7309 99.3497 98.7381 99.3497C99.7453 99.3497 100.711 98.9468 101.423 98.2301C102.136 97.5135 102.536 96.5418 102.536 95.5282C102.536 80.7087 114.392 68.7782 129.119 68.7782ZM189.881 68.7782C204.608 68.7782 216.464 80.7087 216.464 95.5282C216.464 96.5418 216.864 97.5135 217.577 98.2301C218.289 98.9468 219.255 99.3497 220.262 99.3497C221.269 99.3497 222.235 98.9468 222.947 98.2301C223.659 97.5135 224.06 96.5418 224.06 95.5282C224.06 94.3054 223.832 93.1361 223.703 91.9438C228.631 92.5814 233.282 94.5968 237.129 97.7618C240.975 100.927 243.862 105.114 245.462 109.848C247.061 114.581 247.31 119.671 246.178 124.539C245.046 129.408 242.58 133.86 239.06 137.388C238.697 137.741 238.408 138.162 238.209 138.628C238.01 139.094 237.905 139.597 237.901 140.104C237.896 140.611 237.993 141.114 238.184 141.584C238.374 142.053 238.656 142.48 239.013 142.838C239.37 143.197 239.794 143.481 240.26 143.673C240.727 143.866 241.227 143.962 241.731 143.958C242.236 143.954 242.734 143.849 243.197 143.648C243.661 143.448 244.08 143.157 244.43 142.792C247.559 139.635 249.899 135.928 251.577 131.984C255.937 136.205 259.103 141.516 260.751 147.374C262.398 153.231 262.469 159.424 260.955 165.318C259.441 171.212 256.396 176.595 252.134 180.915C247.871 185.235 242.544 188.336 236.698 189.902C235.725 190.165 234.896 190.807 234.393 191.686C233.89 192.564 233.755 193.608 234.017 194.587C234.279 195.566 234.916 196.401 235.79 196.907C236.663 197.413 237.7 197.549 238.673 197.285C241.529 196.521 244.202 195.351 246.769 194.037C246.899 197.778 246.245 201.506 244.85 204.977C243.455 208.448 241.35 211.584 238.673 214.183C235.37 217.367 231.308 219.642 226.878 220.788C222.448 221.934 217.8 221.912 213.381 220.725C212.407 220.464 211.369 220.602 210.497 221.111C209.624 221.619 208.988 222.455 208.729 223.436C208.469 224.416 208.606 225.459 209.111 226.337C209.616 227.215 210.447 227.855 211.421 228.116C212.317 228.361 213.221 228.491 214.117 228.652C211.653 234.255 207.349 238.835 201.928 241.625C196.506 244.414 190.296 245.243 184.34 243.973C178.383 242.703 173.041 239.41 169.21 234.647C165.379 229.884 163.291 223.941 163.298 217.813V95.5282C163.298 80.7011 175.154 68.7782 189.881 68.7782ZM128.739 76.4211C127.732 76.4718 126.786 76.923 126.11 77.6755C125.433 78.428 125.081 79.4198 125.132 80.4333C125.182 81.4468 125.63 82.3989 126.378 83.0797C127.126 83.7605 128.112 84.1146 129.119 84.064C135.453 84.064 140.512 89.1541 140.512 95.5282C140.512 96.5418 140.912 97.5135 141.624 98.2301C142.336 98.9468 143.302 99.3497 144.31 99.3497C145.317 99.3497 146.283 98.9468 146.995 98.2301C147.707 97.5135 148.107 96.5418 148.107 95.5282C148.107 85.0193 139.562 76.4211 129.119 76.4211C128.993 76.4147 128.866 76.4147 128.739 76.4211ZM189.881 76.4211C184.85 76.4372 180.03 78.4554 176.472 82.0352C172.915 85.615 170.909 90.4657 170.893 95.5282C170.893 96.5418 171.293 97.5135 172.005 98.2301C172.717 98.9468 173.683 99.3497 174.69 99.3497C175.698 99.3497 176.664 98.9468 177.376 98.2301C178.088 97.5135 178.488 96.5418 178.488 95.5282C178.488 89.1541 183.547 84.064 189.881 84.064C190.888 84.064 191.854 83.6611 192.566 82.9444C193.278 82.2277 193.679 81.256 193.679 80.2425C193.679 79.229 193.278 78.2569 192.566 77.5402C191.854 76.8235 190.888 76.4211 189.881 76.4211ZM100.963 105.846C100.357 105.84 99.758 105.979 99.2162 106.253C98.6745 106.527 98.2059 106.928 97.8497 107.422C97.4935 107.916 97.2601 108.489 97.1688 109.092C97.0776 109.695 97.1313 110.312 97.3254 110.89C98.1153 113.275 99.2394 115.491 100.5 117.616C96.1315 116.988 91.6915 117.061 87.3452 117.83C86.8545 117.921 86.3862 118.107 85.9672 118.38C85.5482 118.652 85.1866 119.004 84.9031 119.417C84.6196 119.83 84.4197 120.296 84.3148 120.787C84.2099 121.278 84.2022 121.784 84.2919 122.278C84.3817 122.772 84.5673 123.243 84.838 123.665C85.1087 124.087 85.4593 124.45 85.8698 124.735C86.2803 125.021 86.7426 125.222 87.2303 125.328C87.718 125.433 88.2216 125.44 88.7124 125.35C96.6988 123.859 104.952 125.288 111.984 129.379C112.051 129.421 112.12 129.462 112.189 129.501C112.215 129.501 112.24 129.501 112.265 129.501C112.335 129.539 112.406 129.574 112.478 129.607C112.506 129.607 112.534 129.607 112.561 129.607C112.664 129.647 112.768 129.683 112.873 129.714C112.893 129.715 112.913 129.715 112.934 129.714C113.021 129.743 113.11 129.769 113.199 129.791C113.357 129.827 113.517 129.852 113.678 129.867C114.148 129.896 114.619 129.837 115.068 129.692C115.103 129.693 115.139 129.693 115.174 129.692C115.379 129.62 115.577 129.53 115.767 129.424C115.797 129.399 115.828 129.374 115.858 129.348C116.046 129.236 116.223 129.108 116.389 128.965C116.42 128.94 116.451 128.915 116.481 128.889C116.546 128.825 116.61 128.759 116.67 128.69C116.696 128.665 116.721 128.639 116.746 128.614C116.887 128.451 117.014 128.278 117.126 128.094C117.149 128.064 117.172 128.033 117.195 128.002C117.24 127.928 117.283 127.851 117.324 127.773C117.339 127.74 117.354 127.707 117.369 127.674C117.463 127.472 117.539 127.262 117.597 127.047C117.605 127.017 117.613 126.986 117.62 126.956C117.644 126.862 117.664 126.768 117.681 126.673C117.686 126.637 117.691 126.601 117.696 126.566C117.725 126.348 117.735 126.128 117.726 125.909C117.727 125.873 117.727 125.837 117.726 125.802C117.72 125.707 117.709 125.613 117.696 125.519C117.691 125.488 117.686 125.457 117.681 125.427C117.625 125.083 117.523 124.749 117.377 124.433C117.36 124.402 117.342 124.372 117.324 124.342C117.284 124.256 117.241 124.172 117.195 124.09C117.18 124.064 117.164 124.038 117.149 124.013C117.096 123.932 117.041 123.853 116.982 123.776C116.964 123.75 116.947 123.725 116.929 123.7C116.871 123.621 116.81 123.544 116.746 123.47C116.726 123.444 116.706 123.419 116.686 123.394C116.619 123.33 116.551 123.269 116.481 123.211C116.456 123.185 116.43 123.159 116.405 123.134C116.331 123.073 116.255 123.014 116.177 122.958C116.154 122.932 116.132 122.907 116.108 122.881C116.032 122.828 115.953 122.777 115.873 122.729C110.533 119.441 106.52 114.36 104.541 108.383C104.293 107.623 103.814 106.961 103.173 106.489C102.531 106.018 101.758 105.76 100.963 105.754V105.846ZM218.036 105.846C217.244 105.854 216.474 106.111 215.834 106.581C215.193 107.051 214.716 107.71 214.467 108.467C212.486 114.445 208.469 119.526 203.127 122.813C203.091 122.838 203.056 122.864 203.021 122.89C202.977 122.914 202.934 122.94 202.892 122.966C202.866 122.991 202.841 123.017 202.816 123.043C202.737 123.098 202.661 123.157 202.588 123.218C202.544 123.258 202.501 123.299 202.459 123.34C202.407 123.385 202.356 123.43 202.307 123.478C202.289 123.503 202.271 123.528 202.254 123.554C202.19 123.628 202.129 123.705 202.071 123.784C202.019 123.848 201.968 123.914 201.919 123.982C201.893 124.033 201.868 124.084 201.843 124.135C201.801 124.195 201.761 124.257 201.722 124.319C201.701 124.365 201.681 124.41 201.661 124.456C201.646 124.482 201.63 124.507 201.616 124.533C201.468 124.856 201.366 125.197 201.312 125.549C201.308 125.6 201.306 125.651 201.304 125.702C201.293 125.76 201.283 125.819 201.274 125.878C201.273 125.914 201.273 125.949 201.274 125.984C201.266 126.225 201.282 126.465 201.319 126.703C201.328 126.754 201.339 126.805 201.35 126.856C201.359 126.915 201.369 126.974 201.38 127.032C201.39 127.063 201.4 127.093 201.411 127.124C201.472 127.36 201.556 127.591 201.661 127.811C201.686 127.852 201.711 127.893 201.737 127.933C201.761 127.985 201.787 128.036 201.813 128.086C201.83 128.117 201.848 128.148 201.866 128.179C201.98 128.363 202.11 128.537 202.254 128.698C202.279 128.724 202.304 128.75 202.33 128.775C202.391 128.841 202.454 128.904 202.519 128.965C202.549 128.991 202.58 129.017 202.611 129.042C202.776 129.187 202.954 129.318 203.142 129.432C203.172 129.458 203.203 129.483 203.233 129.508C203.46 129.634 203.7 129.737 203.947 129.814C204.391 129.957 204.857 130.016 205.322 129.99C205.483 129.974 205.643 129.949 205.801 129.913C205.89 129.891 205.979 129.865 206.066 129.837C206.102 129.837 206.137 129.837 206.173 129.837C206.262 129.809 206.351 129.779 206.439 129.745C206.469 129.746 206.499 129.746 206.53 129.745C206.615 129.708 206.698 129.667 206.78 129.623C206.809 129.598 206.836 129.572 206.864 129.547C206.915 129.517 206.966 129.487 207.016 129.455H207.077C207.087 129.455 207.097 129.455 207.107 129.455C214.123 125.411 222.336 124 230.288 125.473C230.786 125.564 231.298 125.554 231.793 125.445C232.288 125.337 232.757 125.131 233.173 124.84C233.589 124.549 233.944 124.178 234.218 123.749C234.492 123.32 234.679 122.841 234.769 122.339C234.859 121.838 234.849 121.322 234.741 120.824C234.633 120.326 234.429 119.855 234.14 119.436C233.851 119.017 233.482 118.66 233.056 118.385C232.63 118.109 232.153 117.921 231.655 117.83C227.308 117.061 222.868 116.991 218.5 117.623C219.761 115.491 220.885 113.275 221.675 110.89C221.869 110.312 221.922 109.695 221.831 109.092C221.74 108.489 221.506 107.916 221.15 107.422C220.794 106.928 220.325 106.527 219.784 106.253C219.242 105.979 218.643 105.84 218.036 105.846ZM132.97 120.321C132.311 120.347 131.671 120.545 131.111 120.895C130.552 121.245 130.092 121.735 129.778 122.318C129.464 122.901 129.306 123.556 129.319 124.219C129.333 124.882 129.518 125.53 129.856 126.099C132.37 130.47 133.379 135.555 132.725 140.563C132.071 145.571 129.792 150.22 126.24 153.79C125.878 154.142 125.588 154.563 125.389 155.03C125.19 155.496 125.086 155.998 125.081 156.506C125.077 157.013 125.173 157.516 125.364 157.985C125.555 158.455 125.837 158.881 126.193 159.24C126.55 159.599 126.974 159.883 127.441 160.075C127.907 160.267 128.407 160.364 128.912 160.36C129.416 160.355 129.914 160.25 130.378 160.05C130.841 159.85 131.26 159.558 131.61 159.193C136.336 154.43 139.37 148.233 140.245 141.56C141.119 134.888 139.785 128.111 136.448 122.278C136.106 121.661 135.601 121.151 134.988 120.806C134.375 120.46 133.672 120.293 132.97 120.321ZM185.635 120.321C184.999 120.361 184.384 120.562 183.845 120.904C183.306 121.245 182.861 121.718 182.552 122.278C179.215 128.111 177.881 134.888 178.755 141.56C179.63 148.233 182.664 154.43 187.39 159.193C187.74 159.558 188.159 159.85 188.622 160.05C189.086 160.25 189.584 160.355 190.088 160.36C190.593 160.364 191.093 160.267 191.559 160.075C192.026 159.883 192.45 159.599 192.807 159.24C193.163 158.881 193.445 158.455 193.636 157.985C193.827 157.516 193.923 157.013 193.919 156.506C193.914 155.998 193.81 155.496 193.611 155.03C193.412 154.563 193.122 154.142 192.76 153.79C189.207 150.221 186.926 145.572 186.271 140.564C185.616 135.556 186.623 130.471 189.137 126.099C189.474 125.53 189.659 124.882 189.673 124.219C189.687 123.556 189.529 122.901 189.214 122.318C188.9 121.735 188.441 121.245 187.881 120.895C187.322 120.545 186.681 120.347 186.023 120.321C185.896 120.315 185.762 120.315 185.635 120.321ZM69.3445 155.899C69.218 155.893 69.0913 155.893 68.9648 155.899C68.4043 155.943 67.8605 156.112 67.3727 156.394C66.8849 156.675 66.4653 157.061 66.1441 157.525C65.8229 157.99 65.6082 158.521 65.5154 159.079C65.4226 159.637 65.4541 160.208 65.6077 160.752C66.9871 165.94 69.6981 170.671 73.4687 174.471C73.8191 174.836 74.2381 175.127 74.7014 175.327C75.1647 175.527 75.6631 175.633 76.1673 175.638C76.6716 175.642 77.1716 175.545 77.6383 175.353C78.1051 175.161 78.5291 174.877 78.8856 174.518C79.2422 174.159 79.5242 173.733 79.7151 173.263C79.9061 172.794 80.0022 172.29 79.9978 171.783C79.9934 171.275 79.8886 170.774 79.6896 170.308C79.4906 169.842 79.2013 169.42 78.8386 169.068C76.0087 166.219 73.9734 162.671 72.9371 158.78C72.7332 157.971 72.2716 157.252 71.6229 156.731C70.9741 156.211 70.1739 155.919 69.3445 155.899ZM249.671 155.899C248.838 155.92 248.036 156.215 247.387 156.74C246.737 157.264 246.278 157.99 246.078 158.803C245.041 162.691 243.005 166.236 240.177 169.083C239.814 169.435 239.525 169.857 239.326 170.324C239.127 170.79 239.022 171.291 239.017 171.799C239.013 172.306 239.109 172.809 239.3 173.278C239.491 173.748 239.773 174.175 240.13 174.534C240.486 174.893 240.91 175.176 241.377 175.368C241.844 175.56 242.344 175.657 242.848 175.653C243.352 175.648 243.85 175.543 244.314 175.343C244.777 175.143 245.196 174.852 245.546 174.487C249.317 170.686 252.028 165.955 253.407 160.767C253.561 160.224 253.593 159.653 253.5 159.095C253.408 158.538 253.194 158.008 252.874 157.544C252.553 157.08 252.134 156.692 251.648 156.41C251.161 156.129 250.618 155.959 250.058 155.914C249.931 155.908 249.805 155.908 249.678 155.914L249.671 155.899ZM121.562 191.072C121.215 191.07 120.87 191.116 120.536 191.209C120.531 191.209 120.526 191.209 120.521 191.209C120.491 191.209 120.46 191.209 120.43 191.209C120.34 191.236 120.252 191.267 120.164 191.3C119.975 191.375 119.792 191.464 119.617 191.568C119.607 191.568 119.597 191.568 119.587 191.568C112.551 195.65 104.302 197.077 96.3152 195.596C95.8205 195.506 95.3129 195.514 94.8215 195.621C94.3301 195.728 93.8645 195.932 93.4512 196.22C93.0379 196.508 92.685 196.875 92.4128 197.3C92.1405 197.726 91.9542 198.201 91.8644 198.699C91.7746 199.197 91.7832 199.707 91.8896 200.202C91.996 200.696 92.1981 201.165 92.4844 201.581C92.7708 201.997 93.1357 202.352 93.5584 202.626C93.9811 202.9 94.4533 203.088 94.9481 203.178C99.3305 203.988 103.759 203.965 108.103 203.368C106.842 205.501 105.718 207.725 104.928 210.117C104.61 211.08 104.685 212.131 105.136 213.039C105.588 213.946 106.379 214.636 107.336 214.956C108.293 215.276 109.337 215.2 110.238 214.746C111.14 214.292 111.825 213.496 112.144 212.533C114.111 206.587 118.091 201.527 123.385 198.241C123.405 198.216 123.425 198.19 123.445 198.164C123.453 198.149 123.468 198.164 123.476 198.164C123.556 198.116 123.635 198.065 123.711 198.011C123.737 197.986 123.762 197.961 123.787 197.935C123.865 197.877 123.941 197.815 124.015 197.751C124.038 197.726 124.061 197.7 124.083 197.674C124.154 197.613 124.222 197.55 124.288 197.484C124.294 197.484 124.299 197.484 124.304 197.484C124.814 196.943 125.155 196.263 125.286 195.529C125.417 194.794 125.331 194.038 125.039 193.352C124.748 192.666 124.263 192.081 123.645 191.669C123.027 191.257 122.303 191.036 121.562 191.034V191.072ZM197.286 191.072C196.559 191.105 195.856 191.347 195.261 191.771C194.667 192.194 194.206 192.781 193.934 193.461C193.662 194.141 193.589 194.885 193.726 195.605C193.863 196.325 194.202 196.991 194.704 197.522C194.712 197.522 194.719 197.522 194.727 197.522C194.752 197.548 194.777 197.573 194.803 197.598C194.935 197.733 195.077 197.859 195.228 197.973C195.338 198.053 195.452 198.126 195.57 198.194C200.896 201.491 204.897 206.57 206.871 212.54C207.03 213.017 207.279 213.458 207.607 213.837C207.934 214.217 208.333 214.528 208.779 214.752C209.226 214.977 209.713 215.111 210.211 215.146C210.709 215.182 211.209 215.119 211.683 214.96C212.157 214.8 212.595 214.549 212.972 214.22C213.349 213.89 213.658 213.489 213.882 213.04C214.105 212.59 214.238 212.1 214.273 211.599C214.308 211.098 214.245 210.594 214.087 210.117C213.276 207.758 212.211 205.495 210.912 203.368C215.28 204.004 219.72 203.94 224.067 203.178C224.559 203.088 225.028 202.9 225.448 202.628C225.868 202.355 226.23 202.001 226.515 201.587C226.799 201.174 226.999 200.708 227.105 200.216C227.21 199.724 227.218 199.217 227.128 198.722C227.038 198.227 226.852 197.755 226.581 197.332C226.31 196.91 225.959 196.545 225.548 196.259C225.137 195.973 224.674 195.772 224.185 195.666C223.696 195.56 223.192 195.551 222.7 195.642C214.714 197.133 206.461 195.704 199.428 191.614C199.418 191.614 199.408 191.614 199.398 191.614C199.223 191.51 199.04 191.42 198.851 191.346C198.763 191.312 198.675 191.282 198.585 191.255C198.55 191.254 198.514 191.254 198.479 191.255C198.474 191.255 198.469 191.255 198.464 191.255C198.225 191.19 197.981 191.149 197.734 191.133C197.588 191.124 197.441 191.124 197.294 191.133L197.286 191.072ZM144.256 213.954C143.252 213.97 142.294 214.386 141.594 215.111C140.894 215.836 140.507 216.811 140.519 217.822C140.519 224.196 135.461 229.286 129.127 229.286C128.119 229.286 127.153 229.688 126.441 230.405C125.729 231.121 125.329 232.094 125.329 233.108C125.329 234.121 125.729 235.093 126.441 235.809C127.153 236.526 128.119 236.929 129.127 236.929C139.57 236.929 148.115 228.331 148.115 217.822C148.121 217.311 148.025 216.804 147.833 216.331C147.641 215.858 147.357 215.428 146.997 215.068C146.638 214.707 146.21 214.423 145.739 214.232C145.268 214.041 144.764 213.946 144.256 213.954ZM174.387 213.954C173.426 214.033 172.532 214.478 171.885 215.196C171.238 215.914 170.886 216.853 170.9 217.822C170.9 228.331 179.445 236.929 189.889 236.929C190.896 236.929 191.862 236.526 192.574 235.809C193.286 235.093 193.686 234.121 193.686 233.108C193.686 232.094 193.286 231.121 192.574 230.405C191.862 229.688 190.896 229.286 189.889 229.286C183.554 229.286 178.496 224.196 178.496 217.822C178.508 216.811 178.121 215.836 177.421 215.111C176.721 214.386 175.763 213.97 174.759 213.954C174.635 213.948 174.511 213.948 174.387 213.954Z" fill="white"/>
</g>
<defs>
<linearGradient id="paint0_linear_1_88" x1="40.1313" y1="2.54922" x2="291.671" y2="311.384" gradientUnits="userSpaceOnUse">
<stop stop-color="#FFD800"/>
<stop offset="1" stop-color="#FF6100"/>
</linearGradient>
<clipPath id="clip0_1_88">
<rect width="319" height="321" fill="white"/>
</clipPath>
</defs>
</svg>
