<svg width="1191" height="519" viewBox="0 0 1191 519" fill="none" xmlns="http://www.w3.org/2000/svg">
<rect width="1191" height="519" fill="#1E1E1E"/>
<rect width="1191" height="519" fill="white"/>
<path d="M499.555 118.905C510.149 118.905 517.88 121.189 522.746 125.756C527.613 130.285 530.046 136.537 530.046 144.511C530.046 148.104 529.503 151.549 528.417 154.843C527.332 158.1 525.554 161.001 523.083 163.546C520.65 166.092 517.393 168.113 513.312 169.611C509.232 171.071 504.197 171.801 498.208 171.801H490.739V201H473.332V118.905H499.555ZM498.657 133.168H490.739V157.538H496.467C499.724 157.538 502.55 157.108 504.946 156.247C507.342 155.386 509.195 154.038 510.505 152.204C511.815 150.369 512.47 148.011 512.47 145.128C512.47 141.085 511.347 138.091 509.101 136.144C506.855 134.16 503.374 133.168 498.657 133.168ZM579.235 137.042C580.096 137.042 581.088 137.099 582.211 137.211C583.372 137.286 584.308 137.398 585.019 137.548L583.728 153.607C583.166 153.42 582.361 153.289 581.313 153.214C580.302 153.102 579.423 153.046 578.674 153.046C576.465 153.046 574.313 153.327 572.216 153.888C570.157 154.45 568.304 155.367 566.657 156.64C565.01 157.875 563.7 159.522 562.727 161.581C561.791 163.603 561.323 166.092 561.323 169.049V201H544.196V138.222H557.167L559.694 148.778H560.537C561.772 146.645 563.307 144.698 565.141 142.938C567.013 141.142 569.128 139.719 571.486 138.671C573.882 137.585 576.465 137.042 579.235 137.042ZM653.469 169.499C653.469 174.739 652.757 179.381 651.335 183.424C649.95 187.467 647.91 190.893 645.214 193.7C642.556 196.47 639.337 198.567 635.556 199.989C631.813 201.412 627.583 202.123 622.866 202.123C618.448 202.123 614.387 201.412 610.681 199.989C607.012 198.567 603.811 196.47 601.079 193.7C598.383 190.893 596.287 187.467 594.79 183.424C593.33 179.381 592.6 174.739 592.6 169.499C592.6 162.536 593.835 156.64 596.306 151.811C598.776 146.981 602.295 143.313 606.862 140.805C611.429 138.297 616.876 137.042 623.203 137.042C629.08 137.042 634.283 138.297 638.813 140.805C643.38 143.313 646.955 146.981 649.538 151.811C652.159 156.64 653.469 162.536 653.469 169.499ZM610.063 169.499C610.063 173.616 610.512 177.079 611.411 179.887C612.309 182.694 613.713 184.809 615.622 186.232C617.531 187.654 620.021 188.366 623.09 188.366C626.123 188.366 628.575 187.654 630.446 186.232C632.355 184.809 633.741 182.694 634.602 179.887C635.5 177.079 635.949 173.616 635.949 169.499C635.949 165.343 635.5 161.899 634.602 159.167C633.741 156.396 632.355 154.319 630.446 152.934C628.537 151.549 626.048 150.856 622.978 150.856C618.448 150.856 615.154 152.41 613.095 155.517C611.074 158.624 610.063 163.284 610.063 169.499ZM658.635 138.222H677.39L689.238 173.542C689.612 174.665 689.93 175.806 690.192 176.967C690.454 178.127 690.679 179.325 690.866 180.561C691.053 181.796 691.203 183.087 691.315 184.435H691.652C691.877 182.414 692.176 180.523 692.551 178.764C692.963 177.004 693.468 175.264 694.067 173.542L705.69 138.222H724.052L697.492 209.03C695.882 213.372 693.786 216.985 691.203 219.867C688.62 222.787 685.644 224.977 682.275 226.437C678.943 227.897 675.275 228.627 671.269 228.627C669.322 228.627 667.638 228.515 666.215 228.29C664.793 228.103 663.576 227.897 662.565 227.672V214.083C663.352 214.271 664.344 214.439 665.542 214.589C666.739 214.739 667.993 214.813 669.304 214.813C671.7 214.813 673.758 214.308 675.48 213.297C677.202 212.287 678.644 210.92 679.804 209.198C680.965 207.514 681.882 205.661 682.556 203.639L683.566 200.551L658.635 138.222ZM758.979 137.042C764.781 137.042 769.779 138.166 773.972 140.412C778.164 142.62 781.403 145.84 783.686 150.07C785.97 154.3 787.111 159.466 787.111 165.568V173.878H746.625C746.813 178.708 748.254 182.507 750.949 185.277C753.682 188.01 757.463 189.376 762.292 189.376C766.298 189.376 769.966 188.965 773.298 188.141C776.63 187.318 780.055 186.082 783.574 184.435V197.687C780.467 199.222 777.21 200.345 773.803 201.056C770.434 201.767 766.335 202.123 761.506 202.123C755.217 202.123 749.639 200.963 744.772 198.642C739.943 196.321 736.144 192.783 733.374 188.029C730.641 183.275 729.274 177.285 729.274 170.06C729.274 162.723 730.51 156.621 732.98 151.754C735.489 146.85 738.97 143.182 743.425 140.749C747.88 138.278 753.064 137.042 758.979 137.042ZM759.091 149.228C755.76 149.228 752.989 150.294 750.781 152.428C748.61 154.562 747.355 157.912 747.019 162.479H771.052C771.014 159.934 770.546 157.669 769.648 155.685C768.787 153.701 767.477 152.129 765.717 150.968C763.995 149.808 761.787 149.228 759.091 149.228ZM826.53 202.123C820.316 202.123 815.019 201 810.639 198.754C806.259 196.47 802.928 192.951 800.644 188.197C798.361 183.443 797.219 177.36 797.219 169.948C797.219 162.274 798.51 156.022 801.093 151.193C803.714 146.326 807.326 142.751 811.931 140.468C816.573 138.184 821.944 137.042 828.046 137.042C832.389 137.042 836.132 137.473 839.277 138.334C842.459 139.158 845.229 140.15 847.587 141.31L842.534 154.562C839.838 153.476 837.33 152.597 835.009 151.923C832.688 151.212 830.367 150.856 828.046 150.856C825.052 150.856 822.562 151.567 820.578 152.99C818.594 154.375 817.115 156.471 816.142 159.279C815.169 162.086 814.682 165.605 814.682 169.835C814.682 173.991 815.206 177.435 816.254 180.167C817.303 182.9 818.819 184.94 820.803 186.288C822.787 187.598 825.201 188.253 828.046 188.253C831.603 188.253 834.766 187.785 837.536 186.85C840.306 185.876 843.002 184.529 845.622 182.807V197.462C843.002 199.11 840.25 200.289 837.368 201C834.523 201.749 830.91 202.123 826.53 202.123ZM886.669 188.478C888.541 188.478 890.357 188.291 892.116 187.917C893.913 187.542 895.691 187.074 897.451 186.513V199.259C895.616 200.083 893.333 200.757 890.6 201.281C887.905 201.842 884.947 202.123 881.728 202.123C877.985 202.123 874.615 201.524 871.621 200.326C868.663 199.091 866.324 196.976 864.602 193.981C862.917 190.949 862.075 186.737 862.075 181.347V151.081H853.876V143.837L863.31 138.109L868.251 124.857H879.201V138.222H896.777V151.081H879.201V181.347C879.201 183.743 879.875 185.539 881.223 186.737C882.608 187.898 884.423 188.478 886.669 188.478ZM967.248 169.499C967.248 174.739 966.537 179.381 965.114 183.424C963.729 187.467 961.689 190.893 958.994 193.7C956.336 196.47 953.116 198.567 949.335 199.989C945.592 201.412 941.362 202.123 936.645 202.123C932.228 202.123 928.166 201.412 924.46 199.989C920.791 198.567 917.591 196.47 914.858 193.7C912.163 190.893 910.066 187.467 908.569 183.424C907.109 179.381 906.379 174.739 906.379 169.499C906.379 162.536 907.614 156.64 910.085 151.811C912.556 146.981 916.075 143.313 920.642 140.805C925.209 138.297 930.655 137.042 936.982 137.042C942.859 137.042 948.063 138.297 952.592 140.805C957.159 143.313 960.734 146.981 963.317 151.811C965.938 156.64 967.248 162.536 967.248 169.499ZM923.842 169.499C923.842 173.616 924.292 177.079 925.19 179.887C926.088 182.694 927.492 184.809 929.401 186.232C931.311 187.654 933.8 188.366 936.87 188.366C939.902 188.366 942.354 187.654 944.226 186.232C946.135 184.809 947.52 182.694 948.381 179.887C949.279 177.079 949.729 173.616 949.729 169.499C949.729 165.343 949.279 161.899 948.381 159.167C947.52 156.396 946.135 154.319 944.226 152.934C942.316 151.549 939.827 150.856 936.757 150.856C932.228 150.856 928.933 152.41 926.875 155.517C924.853 158.624 923.842 163.284 923.842 169.499ZM1025.2 182.357C1025.2 186.625 1024.19 190.237 1022.17 193.195C1020.18 196.115 1017.2 198.342 1013.24 199.877C1009.27 201.374 1004.33 202.123 998.413 202.123C994.033 202.123 990.271 201.842 987.126 201.281C984.019 200.719 980.874 199.783 977.692 198.473V184.323C981.099 185.858 984.749 187.13 988.642 188.141C992.573 189.114 996.017 189.601 998.974 189.601C1002.31 189.601 1004.68 189.114 1006.11 188.141C1007.57 187.13 1008.3 185.82 1008.3 184.21C1008.3 183.162 1008 182.226 1007.4 181.403C1006.84 180.542 1005.6 179.587 1003.69 178.539C1001.78 177.453 998.787 176.05 994.707 174.328C990.776 172.681 987.538 171.015 984.992 169.33C982.484 167.646 980.612 165.661 979.377 163.378C978.179 161.057 977.58 158.118 977.58 154.562C977.58 148.76 979.826 144.398 984.318 141.479C988.848 138.521 994.894 137.042 1002.46 137.042C1006.35 137.042 1010.05 137.436 1013.57 138.222C1017.13 139.008 1020.78 140.262 1024.52 141.984L1019.36 154.337C1016.25 152.99 1013.31 151.885 1010.54 151.024C1007.81 150.163 1005.02 149.733 1002.17 149.733C999.667 149.733 997.776 150.07 996.503 150.744C995.231 151.417 994.594 152.447 994.594 153.832C994.594 154.843 994.912 155.741 995.549 156.527C996.223 157.313 997.495 158.193 999.367 159.167C1001.28 160.102 1004.07 161.319 1007.73 162.816C1011.29 164.276 1014.38 165.811 1017 167.421C1019.62 168.993 1021.64 170.958 1023.06 173.317C1024.49 175.638 1025.2 178.651 1025.2 182.357ZM489.111 240.627V260.954C489.111 263.312 489.036 265.652 488.886 267.973C488.774 270.294 488.624 272.091 488.437 273.364H489.111C490.758 270.781 493.004 268.591 495.849 266.794C498.694 264.96 502.382 264.042 506.911 264.042C513.949 264.042 519.658 266.794 524.038 272.297C528.417 277.8 530.607 285.867 530.607 296.499C530.607 303.649 529.597 309.657 527.575 314.523C525.554 319.353 522.727 323.002 519.096 325.473C515.465 327.906 511.254 329.123 506.462 329.123C501.857 329.123 498.226 328.299 495.568 326.652C492.91 325.005 490.758 323.152 489.111 321.093H487.932L485.068 328H471.984V240.627H489.111ZM501.408 277.744C498.413 277.744 496.036 278.361 494.277 279.597C492.517 280.832 491.226 282.685 490.402 285.156C489.616 287.626 489.186 290.752 489.111 294.533V296.386C489.111 302.488 490.009 307.167 491.806 310.424C493.603 313.644 496.879 315.253 501.633 315.253C505.152 315.253 507.941 313.625 510 310.368C512.096 307.111 513.144 302.413 513.144 296.274C513.144 290.135 512.096 285.511 510 282.404C507.903 279.297 505.039 277.744 501.408 277.744ZM579.797 264.042C580.658 264.042 581.65 264.099 582.773 264.211C583.933 264.286 584.869 264.398 585.581 264.548L584.289 280.607C583.728 280.42 582.923 280.289 581.875 280.214C580.864 280.102 579.984 280.046 579.235 280.046C577.027 280.046 574.874 280.327 572.778 280.888C570.719 281.45 568.866 282.367 567.219 283.64C565.572 284.875 564.261 286.522 563.288 288.581C562.352 290.603 561.884 293.092 561.884 296.049V328H544.758V265.222H557.729L560.256 275.778H561.098C562.333 273.645 563.868 271.698 565.703 269.938C567.574 268.142 569.689 266.719 572.048 265.671C574.444 264.585 577.027 264.042 579.797 264.042ZM614.106 265.222V328H596.979V265.222H614.106ZM605.571 240.627C608.116 240.627 610.306 241.226 612.141 242.424C613.975 243.584 614.892 245.774 614.892 248.994C614.892 252.176 613.975 254.384 612.141 255.62C610.306 256.818 608.116 257.417 605.571 257.417C602.988 257.417 600.779 256.818 598.945 255.62C597.148 254.384 596.25 252.176 596.25 248.994C596.25 245.774 597.148 243.584 598.945 242.424C600.779 241.226 602.988 240.627 605.571 240.627ZM649.257 328H632.131V240.627H649.257V328ZM684.409 328H667.282V240.627H684.409V328ZM728.151 263.93C736.574 263.93 743.032 265.764 747.524 269.433C752.016 273.102 754.262 278.68 754.262 286.167V328H742.302L738.989 319.465H738.54C736.743 321.711 734.908 323.545 733.037 324.968C731.165 326.39 729.012 327.438 726.579 328.112C724.146 328.786 721.188 329.123 717.707 329.123C714.001 329.123 710.669 328.412 707.712 326.989C704.792 325.567 702.49 323.396 700.805 320.476C699.121 317.518 698.278 313.775 698.278 309.245C698.278 302.582 700.618 297.678 705.297 294.533C709.977 291.351 716.996 289.592 726.354 289.255L737.248 288.918V286.167C737.248 282.872 736.387 280.458 734.665 278.923C732.943 277.388 730.547 276.621 727.478 276.621C724.445 276.621 721.469 277.051 718.549 277.912C715.629 278.773 712.709 279.859 709.79 281.169L704.118 269.602C707.45 267.842 711.175 266.457 715.292 265.446C719.448 264.436 723.734 263.93 728.151 263.93ZM737.248 298.913L730.622 299.138C725.082 299.287 721.226 300.279 719.055 302.114C716.921 303.948 715.854 306.363 715.854 309.357C715.854 311.978 716.621 313.85 718.156 314.973C719.691 316.058 721.694 316.601 724.165 316.601C727.833 316.601 730.922 315.515 733.43 313.344C735.975 311.173 737.248 308.085 737.248 304.079V298.913ZM807.607 264.042C814.308 264.042 819.698 265.877 823.779 269.545C827.859 273.177 829.899 279.016 829.899 287.065V328H812.773V291.333C812.773 286.84 811.949 283.452 810.302 281.169C808.693 278.885 806.147 277.744 802.666 277.744C797.425 277.744 793.85 279.522 791.94 283.078C790.031 286.634 789.077 291.763 789.077 298.464V328H771.95V265.222H785.034L787.336 273.251H788.291C789.638 271.08 791.304 269.321 793.288 267.973C795.31 266.625 797.537 265.633 799.97 264.997C802.441 264.361 804.986 264.042 807.607 264.042ZM873.979 315.478C875.851 315.478 877.666 315.291 879.426 314.917C881.223 314.542 883.001 314.074 884.76 313.513V326.259C882.926 327.083 880.642 327.757 877.91 328.281C875.214 328.842 872.257 329.123 869.038 329.123C865.294 329.123 861.925 328.524 858.93 327.326C855.973 326.091 853.633 323.976 851.911 320.981C850.227 317.949 849.384 313.737 849.384 308.347V278.081H841.186V270.837L850.62 265.109L855.561 251.857H866.511V265.222H884.086V278.081H866.511V308.347C866.511 310.743 867.185 312.539 868.532 313.737C869.917 314.898 871.733 315.478 873.979 315.478ZM923.393 264.042C929.195 264.042 934.193 265.166 938.386 267.412C942.578 269.62 945.817 272.84 948.1 277.07C950.384 281.3 951.525 286.466 951.525 292.568V300.878H911.04C911.227 305.708 912.668 309.507 915.363 312.277C918.096 315.01 921.877 316.376 926.706 316.376C930.712 316.376 934.38 315.965 937.712 315.141C941.044 314.318 944.469 313.082 947.988 311.435V324.687C944.881 326.222 941.624 327.345 938.217 328.056C934.848 328.767 930.749 329.123 925.92 329.123C919.631 329.123 914.053 327.963 909.187 325.642C904.357 323.321 900.558 319.783 897.788 315.029C895.055 310.275 893.688 304.285 893.688 297.06C893.688 289.723 894.924 283.621 897.395 278.754C899.903 273.85 903.384 270.182 907.839 267.749C912.294 265.278 917.478 264.042 923.393 264.042ZM923.505 276.228C920.174 276.228 917.403 277.294 915.195 279.428C913.024 281.562 911.77 284.912 911.433 289.479H935.466C935.428 286.934 934.96 284.669 934.062 282.685C933.201 280.701 931.891 279.129 930.131 277.968C928.409 276.808 926.201 276.228 923.505 276.228ZM1009.25 309.357C1009.25 313.625 1008.24 317.237 1006.22 320.195C1004.23 323.115 1001.26 325.342 997.29 326.877C993.321 328.374 988.38 329.123 982.465 329.123C978.085 329.123 974.323 328.842 971.179 328.281C968.072 327.719 964.927 326.783 961.745 325.473V311.323C965.152 312.858 968.802 314.13 972.695 315.141C976.625 316.114 980.069 316.601 983.027 316.601C986.359 316.601 988.736 316.114 990.158 315.141C991.618 314.13 992.348 312.82 992.348 311.21C992.348 310.162 992.049 309.226 991.45 308.403C990.888 307.542 989.653 306.587 987.744 305.539C985.834 304.453 982.84 303.05 978.759 301.328C974.829 299.681 971.59 298.015 969.045 296.33C966.537 294.646 964.665 292.661 963.43 290.378C962.232 288.057 961.633 285.118 961.633 281.562C961.633 275.76 963.879 271.398 968.371 268.479C972.901 265.521 978.946 264.042 986.508 264.042C990.402 264.042 994.108 264.436 997.626 265.222C1001.18 266.008 1004.83 267.262 1008.58 268.984L1003.41 281.337C1000.3 279.99 997.364 278.885 994.594 278.024C991.861 277.163 989.073 276.733 986.228 276.733C983.719 276.733 981.829 277.07 980.556 277.744C979.283 278.417 978.647 279.447 978.647 280.832C978.647 281.843 978.965 282.741 979.602 283.527C980.275 284.313 981.548 285.193 983.42 286.167C985.329 287.102 988.118 288.319 991.787 289.816C995.343 291.276 998.431 292.811 1001.05 294.421C1003.67 295.993 1005.69 297.958 1007.12 300.317C1008.54 302.638 1009.25 305.651 1009.25 309.357ZM484.469 365.156V379.938C484.469 381.51 484.12 382.932 483.422 384.203C482.734 385.464 481.688 386.464 480.281 387.203C478.885 387.943 477.125 388.312 475 388.312C471.979 388.312 469.677 387.542 468.094 386C466.51 384.458 465.719 382.417 465.719 379.875V365.156H470.547V379.141C470.547 381.026 470.932 382.349 471.703 383.109C472.474 383.87 473.615 384.25 475.125 384.25C476.188 384.25 477.047 384.068 477.703 383.703C478.37 383.339 478.859 382.776 479.172 382.016C479.484 381.255 479.641 380.286 479.641 379.109V365.156H484.469ZM499.609 370.203C501.474 370.203 502.974 370.714 504.109 371.734C505.245 372.745 505.812 374.37 505.812 376.609V388H501.047V377.797C501.047 376.547 500.818 375.604 500.359 374.969C499.911 374.333 499.203 374.016 498.234 374.016C496.776 374.016 495.781 374.51 495.25 375.5C494.719 376.49 494.453 377.917 494.453 379.781V388H489.688V370.531H493.328L493.969 372.766H494.234C494.609 372.161 495.073 371.672 495.625 371.297C496.188 370.922 496.807 370.646 497.484 370.469C498.172 370.292 498.88 370.203 499.609 370.203ZM517.875 370.172C520.219 370.172 522.016 370.682 523.266 371.703C524.516 372.724 525.141 374.276 525.141 376.359V388H521.812L520.891 385.625H520.766C520.266 386.25 519.755 386.76 519.234 387.156C518.714 387.552 518.115 387.844 517.438 388.031C516.76 388.219 515.938 388.312 514.969 388.312C513.938 388.312 513.01 388.115 512.188 387.719C511.375 387.323 510.734 386.719 510.266 385.906C509.797 385.083 509.562 384.042 509.562 382.781C509.562 380.927 510.214 379.562 511.516 378.688C512.818 377.802 514.771 377.312 517.375 377.219L520.406 377.125V376.359C520.406 375.443 520.167 374.771 519.688 374.344C519.208 373.917 518.542 373.703 517.688 373.703C516.844 373.703 516.016 373.823 515.203 374.062C514.391 374.302 513.578 374.604 512.766 374.969L511.188 371.75C512.115 371.26 513.151 370.875 514.297 370.594C515.453 370.312 516.646 370.172 517.875 370.172ZM520.406 379.906L518.562 379.969C517.021 380.01 515.948 380.286 515.344 380.797C514.75 381.307 514.453 381.979 514.453 382.812C514.453 383.542 514.667 384.062 515.094 384.375C515.521 384.677 516.078 384.828 516.766 384.828C517.786 384.828 518.646 384.526 519.344 383.922C520.052 383.318 520.406 382.458 520.406 381.344V379.906ZM548.094 370.203C550.062 370.203 551.651 370.969 552.859 372.5C554.078 374.031 554.688 376.276 554.688 379.234C554.688 381.214 554.401 382.88 553.828 384.234C553.255 385.578 552.464 386.594 551.453 387.281C550.443 387.969 549.281 388.312 547.969 388.312C547.125 388.312 546.401 388.208 545.797 388C545.193 387.781 544.677 387.505 544.25 387.172C543.823 386.828 543.453 386.464 543.141 386.078H542.891C542.974 386.495 543.036 386.922 543.078 387.359C543.12 387.797 543.141 388.224 543.141 388.641V395.688H538.375V370.531H542.25L542.922 372.797H543.141C543.453 372.328 543.833 371.896 544.281 371.5C544.729 371.104 545.266 370.792 545.891 370.562C546.526 370.323 547.26 370.203 548.094 370.203ZM546.562 374.016C545.729 374.016 545.068 374.188 544.578 374.531C544.089 374.875 543.729 375.391 543.5 376.078C543.281 376.766 543.161 377.635 543.141 378.688V379.203C543.141 380.328 543.245 381.281 543.453 382.062C543.672 382.844 544.031 383.438 544.531 383.844C545.042 384.25 545.74 384.453 546.625 384.453C547.354 384.453 547.953 384.25 548.422 383.844C548.891 383.438 549.24 382.844 549.469 382.062C549.708 381.271 549.828 380.307 549.828 379.172C549.828 377.464 549.562 376.177 549.031 375.312C548.5 374.448 547.677 374.016 546.562 374.016ZM563.391 388H558.625V363.688H563.391V388ZM575.562 370.172C577.906 370.172 579.703 370.682 580.953 371.703C582.203 372.724 582.828 374.276 582.828 376.359V388H579.5L578.578 385.625H578.453C577.953 386.25 577.443 386.76 576.922 387.156C576.401 387.552 575.802 387.844 575.125 388.031C574.448 388.219 573.625 388.312 572.656 388.312C571.625 388.312 570.698 388.115 569.875 387.719C569.062 387.323 568.422 386.719 567.953 385.906C567.484 385.083 567.25 384.042 567.25 382.781C567.25 380.927 567.901 379.562 569.203 378.688C570.505 377.802 572.458 377.312 575.062 377.219L578.094 377.125V376.359C578.094 375.443 577.854 374.771 577.375 374.344C576.896 373.917 576.229 373.703 575.375 373.703C574.531 373.703 573.703 373.823 572.891 374.062C572.078 374.302 571.266 374.604 570.453 374.969L568.875 371.75C569.802 371.26 570.839 370.875 571.984 370.594C573.141 370.312 574.333 370.172 575.562 370.172ZM578.094 379.906L576.25 379.969C574.708 380.01 573.635 380.286 573.031 380.797C572.438 381.307 572.141 381.979 572.141 382.812C572.141 383.542 572.354 384.062 572.781 384.375C573.208 384.677 573.766 384.828 574.453 384.828C575.474 384.828 576.333 384.526 577.031 383.922C577.74 383.318 578.094 382.458 578.094 381.344V379.906ZM595.109 384.516C595.63 384.516 596.135 384.464 596.625 384.359C597.125 384.255 597.62 384.125 598.109 383.969V387.516C597.599 387.745 596.964 387.932 596.203 388.078C595.453 388.234 594.63 388.312 593.734 388.312C592.693 388.312 591.755 388.146 590.922 387.812C590.099 387.469 589.448 386.88 588.969 386.047C588.5 385.203 588.266 384.031 588.266 382.531V374.109H585.984V372.094L588.609 370.5L589.984 366.812H593.031V370.531H597.922V374.109H593.031V382.531C593.031 383.198 593.219 383.698 593.594 384.031C593.979 384.354 594.484 384.516 595.109 384.516ZM608.812 370.172C611.156 370.172 612.953 370.682 614.203 371.703C615.453 372.724 616.078 374.276 616.078 376.359V388H612.75L611.828 385.625H611.703C611.203 386.25 610.693 386.76 610.172 387.156C609.651 387.552 609.052 387.844 608.375 388.031C607.698 388.219 606.875 388.312 605.906 388.312C604.875 388.312 603.948 388.115 603.125 387.719C602.312 387.323 601.672 386.719 601.203 385.906C600.734 385.083 600.5 384.042 600.5 382.781C600.5 380.927 601.151 379.562 602.453 378.688C603.755 377.802 605.708 377.312 608.312 377.219L611.344 377.125V376.359C611.344 375.443 611.104 374.771 610.625 374.344C610.146 373.917 609.479 373.703 608.625 373.703C607.781 373.703 606.953 373.823 606.141 374.062C605.328 374.302 604.516 374.604 603.703 374.969L602.125 371.75C603.052 371.26 604.089 370.875 605.234 370.594C606.391 370.312 607.583 370.172 608.812 370.172ZM611.344 379.906L609.5 379.969C607.958 380.01 606.885 380.286 606.281 380.797C605.688 381.307 605.391 381.979 605.391 382.812C605.391 383.542 605.604 384.062 606.031 384.375C606.458 384.677 607.016 384.828 607.703 384.828C608.724 384.828 609.583 384.526 610.281 383.922C610.99 383.318 611.344 382.458 611.344 381.344V379.906ZM630.656 374.109H626.531V388H621.766V374.109H619.141V371.812L621.766 370.531V369.25C621.766 367.76 622.016 366.604 622.516 365.781C623.026 364.948 623.74 364.365 624.656 364.031C625.583 363.688 626.677 363.516 627.938 363.516C628.865 363.516 629.708 363.594 630.469 363.75C631.229 363.896 631.849 364.062 632.328 364.25L631.109 367.75C630.745 367.635 630.349 367.531 629.922 367.438C629.495 367.344 629.005 367.297 628.453 367.297C627.786 367.297 627.297 367.5 626.984 367.906C626.682 368.302 626.531 368.812 626.531 369.438V370.531H630.656V374.109ZM649.281 379.234C649.281 380.693 649.083 381.984 648.688 383.109C648.302 384.234 647.734 385.188 646.984 385.969C646.245 386.74 645.349 387.323 644.297 387.719C643.255 388.115 642.078 388.312 640.766 388.312C639.536 388.312 638.406 388.115 637.375 387.719C636.354 387.323 635.464 386.74 634.703 385.969C633.953 385.188 633.37 384.234 632.953 383.109C632.547 381.984 632.344 380.693 632.344 379.234C632.344 377.297 632.688 375.656 633.375 374.312C634.062 372.969 635.042 371.948 636.312 371.25C637.583 370.552 639.099 370.203 640.859 370.203C642.495 370.203 643.943 370.552 645.203 371.25C646.474 371.948 647.469 372.969 648.188 374.312C648.917 375.656 649.281 377.297 649.281 379.234ZM637.203 379.234C637.203 380.38 637.328 381.344 637.578 382.125C637.828 382.906 638.219 383.495 638.75 383.891C639.281 384.286 639.974 384.484 640.828 384.484C641.672 384.484 642.354 384.286 642.875 383.891C643.406 383.495 643.792 382.906 644.031 382.125C644.281 381.344 644.406 380.38 644.406 379.234C644.406 378.078 644.281 377.12 644.031 376.359C643.792 375.589 643.406 375.01 642.875 374.625C642.344 374.24 641.651 374.047 640.797 374.047C639.536 374.047 638.62 374.479 638.047 375.344C637.484 376.208 637.203 377.505 637.203 379.234ZM662.969 370.203C663.208 370.203 663.484 370.219 663.797 370.25C664.12 370.271 664.38 370.302 664.578 370.344L664.219 374.812C664.062 374.76 663.839 374.724 663.547 374.703C663.266 374.672 663.021 374.656 662.812 374.656C662.198 374.656 661.599 374.734 661.016 374.891C660.443 375.047 659.927 375.302 659.469 375.656C659.01 376 658.646 376.458 658.375 377.031C658.115 377.594 657.984 378.286 657.984 379.109V388H653.219V370.531H656.828L657.531 373.469H657.766C658.109 372.875 658.536 372.333 659.047 371.844C659.568 371.344 660.156 370.948 660.812 370.656C661.479 370.354 662.198 370.203 662.969 370.203ZM688.266 370.203C690.245 370.203 691.74 370.714 692.75 371.734C693.771 372.745 694.281 374.37 694.281 376.609V388H689.5V377.797C689.5 376.547 689.286 375.604 688.859 374.969C688.432 374.333 687.771 374.016 686.875 374.016C685.615 374.016 684.719 374.469 684.188 375.375C683.656 376.271 683.391 377.557 683.391 379.234V388H678.625V377.797C678.625 376.964 678.531 376.266 678.344 375.703C678.156 375.141 677.87 374.719 677.484 374.438C677.099 374.156 676.604 374.016 676 374.016C675.115 374.016 674.417 374.24 673.906 374.688C673.406 375.125 673.047 375.776 672.828 376.641C672.62 377.495 672.516 378.542 672.516 379.781V388H667.75V370.531H671.391L672.031 372.766H672.297C672.651 372.161 673.094 371.672 673.625 371.297C674.167 370.922 674.76 370.646 675.406 370.469C676.052 370.292 676.708 370.203 677.375 370.203C678.656 370.203 679.74 370.411 680.625 370.828C681.521 371.245 682.208 371.891 682.688 372.766H683.109C683.63 371.87 684.365 371.219 685.312 370.812C686.271 370.406 687.255 370.203 688.266 370.203ZM706.344 370.172C708.688 370.172 710.484 370.682 711.734 371.703C712.984 372.724 713.609 374.276 713.609 376.359V388H710.281L709.359 385.625H709.234C708.734 386.25 708.224 386.76 707.703 387.156C707.182 387.552 706.583 387.844 705.906 388.031C705.229 388.219 704.406 388.312 703.438 388.312C702.406 388.312 701.479 388.115 700.656 387.719C699.844 387.323 699.203 386.719 698.734 385.906C698.266 385.083 698.031 384.042 698.031 382.781C698.031 380.927 698.682 379.562 699.984 378.688C701.286 377.802 703.24 377.312 705.844 377.219L708.875 377.125V376.359C708.875 375.443 708.635 374.771 708.156 374.344C707.677 373.917 707.01 373.703 706.156 373.703C705.312 373.703 704.484 373.823 703.672 374.062C702.859 374.302 702.047 374.604 701.234 374.969L699.656 371.75C700.583 371.26 701.62 370.875 702.766 370.594C703.922 370.312 705.115 370.172 706.344 370.172ZM708.875 379.906L707.031 379.969C705.49 380.01 704.417 380.286 703.812 380.797C703.219 381.307 702.922 381.979 702.922 382.812C702.922 383.542 703.135 384.062 703.562 384.375C703.99 384.677 704.547 384.828 705.234 384.828C706.255 384.828 707.115 384.526 707.812 383.922C708.521 383.318 708.875 382.458 708.875 381.344V379.906ZM732.375 388.312C730.427 388.312 728.839 387.552 727.609 386.031C726.391 384.5 725.781 382.255 725.781 379.297C725.781 376.307 726.401 374.047 727.641 372.516C728.88 370.974 730.5 370.203 732.5 370.203C733.333 370.203 734.068 370.318 734.703 370.547C735.339 370.776 735.885 371.083 736.344 371.469C736.812 371.854 737.208 372.286 737.531 372.766H737.688C737.625 372.432 737.547 371.943 737.453 371.297C737.37 370.641 737.328 369.969 737.328 369.281V363.688H742.109V388H738.453L737.531 385.734H737.328C737.026 386.214 736.646 386.651 736.188 387.047C735.74 387.432 735.203 387.74 734.578 387.969C733.953 388.198 733.219 388.312 732.375 388.312ZM734.047 384.516C735.349 384.516 736.266 384.13 736.797 383.359C737.339 382.578 737.625 381.406 737.656 379.844V379.328C737.656 377.63 737.396 376.333 736.875 375.438C736.354 374.531 735.385 374.078 733.969 374.078C732.917 374.078 732.094 374.531 731.5 375.438C730.906 376.344 730.609 377.651 730.609 379.359C730.609 381.068 730.906 382.354 731.5 383.219C732.104 384.083 732.953 384.516 734.047 384.516ZM754.297 370.203C755.911 370.203 757.302 370.516 758.469 371.141C759.635 371.755 760.536 372.651 761.172 373.828C761.807 375.005 762.125 376.443 762.125 378.141V380.453H750.859C750.911 381.797 751.312 382.854 752.062 383.625C752.823 384.385 753.875 384.766 755.219 384.766C756.333 384.766 757.354 384.651 758.281 384.422C759.208 384.193 760.161 383.849 761.141 383.391V387.078C760.276 387.505 759.37 387.818 758.422 388.016C757.484 388.214 756.344 388.312 755 388.312C753.25 388.312 751.698 387.99 750.344 387.344C749 386.698 747.943 385.714 747.172 384.391C746.411 383.068 746.031 381.401 746.031 379.391C746.031 377.349 746.375 375.651 747.062 374.297C747.76 372.932 748.729 371.911 749.969 371.234C751.208 370.547 752.651 370.203 754.297 370.203ZM754.328 373.594C753.401 373.594 752.63 373.891 752.016 374.484C751.411 375.078 751.062 376.01 750.969 377.281H757.656C757.646 376.573 757.516 375.943 757.266 375.391C757.026 374.839 756.661 374.401 756.172 374.078C755.693 373.755 755.078 373.594 754.328 373.594ZM783.969 374.109H779.844V388H775.078V374.109H772.453V371.812L775.078 370.531V369.25C775.078 367.76 775.328 366.604 775.828 365.781C776.339 364.948 777.052 364.365 777.969 364.031C778.896 363.688 779.99 363.516 781.25 363.516C782.177 363.516 783.021 363.594 783.781 363.75C784.542 363.896 785.161 364.062 785.641 364.25L784.422 367.75C784.057 367.635 783.661 367.531 783.234 367.438C782.807 367.344 782.318 367.297 781.766 367.297C781.099 367.297 780.609 367.5 780.297 367.906C779.995 368.302 779.844 368.812 779.844 369.438V370.531H783.969V374.109ZM791.469 370.531V388H786.703V370.531H791.469ZM789.094 363.688C789.802 363.688 790.411 363.854 790.922 364.188C791.432 364.51 791.688 365.12 791.688 366.016C791.688 366.901 791.432 367.516 790.922 367.859C790.411 368.193 789.802 368.359 789.094 368.359C788.375 368.359 787.76 368.193 787.25 367.859C786.75 367.516 786.5 366.901 786.5 366.016C786.5 365.12 786.75 364.51 787.25 364.188C787.76 363.854 788.375 363.688 789.094 363.688ZM806.391 370.203C808.255 370.203 809.755 370.714 810.891 371.734C812.026 372.745 812.594 374.37 812.594 376.609V388H807.828V377.797C807.828 376.547 807.599 375.604 807.141 374.969C806.693 374.333 805.984 374.016 805.016 374.016C803.557 374.016 802.562 374.51 802.031 375.5C801.5 376.49 801.234 377.917 801.234 379.781V388H796.469V370.531H800.109L800.75 372.766H801.016C801.391 372.161 801.854 371.672 802.406 371.297C802.969 370.922 803.589 370.646 804.266 370.469C804.953 370.292 805.661 370.203 806.391 370.203ZM824.656 370.172C827 370.172 828.797 370.682 830.047 371.703C831.297 372.724 831.922 374.276 831.922 376.359V388H828.594L827.672 385.625H827.547C827.047 386.25 826.536 386.76 826.016 387.156C825.495 387.552 824.896 387.844 824.219 388.031C823.542 388.219 822.719 388.312 821.75 388.312C820.719 388.312 819.792 388.115 818.969 387.719C818.156 387.323 817.516 386.719 817.047 385.906C816.578 385.083 816.344 384.042 816.344 382.781C816.344 380.927 816.995 379.562 818.297 378.688C819.599 377.802 821.552 377.312 824.156 377.219L827.188 377.125V376.359C827.188 375.443 826.948 374.771 826.469 374.344C825.99 373.917 825.323 373.703 824.469 373.703C823.625 373.703 822.797 373.823 821.984 374.062C821.172 374.302 820.359 374.604 819.547 374.969L817.969 371.75C818.896 371.26 819.932 370.875 821.078 370.594C822.234 370.312 823.427 370.172 824.656 370.172ZM827.188 379.906L825.344 379.969C823.802 380.01 822.729 380.286 822.125 380.797C821.531 381.307 821.234 381.979 821.234 382.812C821.234 383.542 821.448 384.062 821.875 384.375C822.302 384.677 822.859 384.828 823.547 384.828C824.568 384.828 825.427 384.526 826.125 383.922C826.833 383.318 827.188 382.458 827.188 381.344V379.906ZM846.766 370.203C848.63 370.203 850.13 370.714 851.266 371.734C852.401 372.745 852.969 374.37 852.969 376.609V388H848.203V377.797C848.203 376.547 847.974 375.604 847.516 374.969C847.068 374.333 846.359 374.016 845.391 374.016C843.932 374.016 842.938 374.51 842.406 375.5C841.875 376.49 841.609 377.917 841.609 379.781V388H836.844V370.531H840.484L841.125 372.766H841.391C841.766 372.161 842.229 371.672 842.781 371.297C843.344 370.922 843.964 370.646 844.641 370.469C845.328 370.292 846.036 370.203 846.766 370.203ZM864.969 388.312C863.24 388.312 861.766 388 860.547 387.375C859.328 386.74 858.401 385.76 857.766 384.438C857.13 383.115 856.812 381.422 856.812 379.359C856.812 377.224 857.172 375.484 857.891 374.141C858.62 372.786 859.625 371.792 860.906 371.156C862.198 370.521 863.693 370.203 865.391 370.203C866.599 370.203 867.641 370.323 868.516 370.562C869.401 370.792 870.172 371.068 870.828 371.391L869.422 375.078C868.672 374.776 867.974 374.531 867.328 374.344C866.682 374.146 866.036 374.047 865.391 374.047C864.557 374.047 863.865 374.245 863.312 374.641C862.76 375.026 862.349 375.609 862.078 376.391C861.807 377.172 861.672 378.151 861.672 379.328C861.672 380.484 861.818 381.443 862.109 382.203C862.401 382.964 862.823 383.531 863.375 383.906C863.927 384.271 864.599 384.453 865.391 384.453C866.38 384.453 867.26 384.323 868.031 384.062C868.802 383.792 869.552 383.417 870.281 382.938V387.016C869.552 387.474 868.786 387.802 867.984 388C867.193 388.208 866.188 388.312 864.969 388.312ZM879.109 370.531V388H874.344V370.531H879.109ZM876.734 363.688C877.443 363.688 878.052 363.854 878.562 364.188C879.073 364.51 879.328 365.12 879.328 366.016C879.328 366.901 879.073 367.516 878.562 367.859C878.052 368.193 877.443 368.359 876.734 368.359C876.016 368.359 875.401 368.193 874.891 367.859C874.391 367.516 874.141 366.901 874.141 366.016C874.141 365.12 874.391 364.51 874.891 364.188C875.401 363.854 876.016 363.688 876.734 363.688ZM891.281 370.172C893.625 370.172 895.422 370.682 896.672 371.703C897.922 372.724 898.547 374.276 898.547 376.359V388H895.219L894.297 385.625H894.172C893.672 386.25 893.161 386.76 892.641 387.156C892.12 387.552 891.521 387.844 890.844 388.031C890.167 388.219 889.344 388.312 888.375 388.312C887.344 388.312 886.417 388.115 885.594 387.719C884.781 387.323 884.141 386.719 883.672 385.906C883.203 385.083 882.969 384.042 882.969 382.781C882.969 380.927 883.62 379.562 884.922 378.688C886.224 377.802 888.177 377.312 890.781 377.219L893.812 377.125V376.359C893.812 375.443 893.573 374.771 893.094 374.344C892.615 373.917 891.948 373.703 891.094 373.703C890.25 373.703 889.422 373.823 888.609 374.062C887.797 374.302 886.984 374.604 886.172 374.969L884.594 371.75C885.521 371.26 886.557 370.875 887.703 370.594C888.859 370.312 890.052 370.172 891.281 370.172ZM893.812 379.906L891.969 379.969C890.427 380.01 889.354 380.286 888.75 380.797C888.156 381.307 887.859 381.979 887.859 382.812C887.859 383.542 888.073 384.062 888.5 384.375C888.927 384.677 889.484 384.828 890.172 384.828C891.193 384.828 892.052 384.526 892.75 383.922C893.458 383.318 893.812 382.458 893.812 381.344V379.906ZM910.562 388.312C908.833 388.312 907.359 388 906.141 387.375C904.922 386.74 903.995 385.76 903.359 384.438C902.724 383.115 902.406 381.422 902.406 379.359C902.406 377.224 902.766 375.484 903.484 374.141C904.214 372.786 905.219 371.792 906.5 371.156C907.792 370.521 909.286 370.203 910.984 370.203C912.193 370.203 913.234 370.323 914.109 370.562C914.995 370.792 915.766 371.068 916.422 371.391L915.016 375.078C914.266 374.776 913.568 374.531 912.922 374.344C912.276 374.146 911.63 374.047 910.984 374.047C910.151 374.047 909.458 374.245 908.906 374.641C908.354 375.026 907.943 375.609 907.672 376.391C907.401 377.172 907.266 378.151 907.266 379.328C907.266 380.484 907.411 381.443 907.703 382.203C907.995 382.964 908.417 383.531 908.969 383.906C909.521 384.271 910.193 384.453 910.984 384.453C911.974 384.453 912.854 384.323 913.625 384.062C914.396 383.792 915.146 383.417 915.875 382.938V387.016C915.146 387.474 914.38 387.802 913.578 388C912.786 388.208 911.781 388.312 910.562 388.312ZM924.703 370.531V388H919.938V370.531H924.703ZM922.328 363.688C923.036 363.688 923.646 363.854 924.156 364.188C924.667 364.51 924.922 365.12 924.922 366.016C924.922 366.901 924.667 367.516 924.156 367.859C923.646 368.193 923.036 368.359 922.328 368.359C921.609 368.359 920.995 368.193 920.484 367.859C919.984 367.516 919.734 366.901 919.734 366.016C919.734 365.12 919.984 364.51 920.484 364.188C920.995 363.854 921.609 363.688 922.328 363.688ZM945.594 379.234C945.594 380.693 945.396 381.984 945 383.109C944.615 384.234 944.047 385.188 943.297 385.969C942.557 386.74 941.661 387.323 940.609 387.719C939.568 388.115 938.391 388.312 937.078 388.312C935.849 388.312 934.719 388.115 933.688 387.719C932.667 387.323 931.776 386.74 931.016 385.969C930.266 385.188 929.682 384.234 929.266 383.109C928.859 381.984 928.656 380.693 928.656 379.234C928.656 377.297 929 375.656 929.688 374.312C930.375 372.969 931.354 371.948 932.625 371.25C933.896 370.552 935.411 370.203 937.172 370.203C938.807 370.203 940.255 370.552 941.516 371.25C942.786 371.948 943.781 372.969 944.5 374.312C945.229 375.656 945.594 377.297 945.594 379.234ZM933.516 379.234C933.516 380.38 933.641 381.344 933.891 382.125C934.141 382.906 934.531 383.495 935.062 383.891C935.594 384.286 936.286 384.484 937.141 384.484C937.984 384.484 938.667 384.286 939.188 383.891C939.719 383.495 940.104 382.906 940.344 382.125C940.594 381.344 940.719 380.38 940.719 379.234C940.719 378.078 940.594 377.12 940.344 376.359C940.104 375.589 939.719 375.01 939.188 374.625C938.656 374.24 937.964 374.047 937.109 374.047C935.849 374.047 934.932 374.479 934.359 375.344C933.797 376.208 933.516 377.505 933.516 379.234ZM943.281 363.484V363.812C942.979 364.104 942.583 364.464 942.094 364.891C941.604 365.318 941.078 365.766 940.516 366.234C939.953 366.693 939.401 367.135 938.859 367.562C938.318 367.979 937.844 368.328 937.438 368.609H934.266V368.188C934.609 367.792 935.005 367.323 935.453 366.781C935.911 366.229 936.365 365.661 936.812 365.078C937.26 364.495 937.635 363.964 937.938 363.484H943.281ZM959.453 370.203C961.318 370.203 962.818 370.714 963.953 371.734C965.089 372.745 965.656 374.37 965.656 376.609V388H960.891V377.797C960.891 376.547 960.661 375.604 960.203 374.969C959.755 374.333 959.047 374.016 958.078 374.016C956.62 374.016 955.625 374.51 955.094 375.5C954.562 376.49 954.297 377.917 954.297 379.781V388H949.531V370.531H953.172L953.812 372.766H954.078C954.453 372.161 954.917 371.672 955.469 371.297C956.031 370.922 956.651 370.646 957.328 370.469C958.016 370.292 958.724 370.203 959.453 370.203ZM985.969 388.312C984.24 388.312 982.766 388 981.547 387.375C980.328 386.74 979.401 385.76 978.766 384.438C978.13 383.115 977.812 381.422 977.812 379.359C977.812 377.224 978.172 375.484 978.891 374.141C979.62 372.786 980.625 371.792 981.906 371.156C983.198 370.521 984.693 370.203 986.391 370.203C987.599 370.203 988.641 370.323 989.516 370.562C990.401 370.792 991.172 371.068 991.828 371.391L990.422 375.078C989.672 374.776 988.974 374.531 988.328 374.344C987.682 374.146 987.036 374.047 986.391 374.047C985.557 374.047 984.865 374.245 984.312 374.641C983.76 375.026 983.349 375.609 983.078 376.391C982.807 377.172 982.672 378.151 982.672 379.328C982.672 380.484 982.818 381.443 983.109 382.203C983.401 382.964 983.823 383.531 984.375 383.906C984.927 384.271 985.599 384.453 986.391 384.453C987.38 384.453 988.26 384.323 989.031 384.062C989.802 383.792 990.552 383.417 991.281 382.938V387.016C990.552 387.474 989.786 387.802 988.984 388C988.193 388.208 987.188 388.312 985.969 388.312ZM1011.22 379.234C1011.22 380.693 1011.02 381.984 1010.62 383.109C1010.24 384.234 1009.67 385.188 1008.92 385.969C1008.18 386.74 1007.29 387.323 1006.23 387.719C1005.19 388.115 1004.02 388.312 1002.7 388.312C1001.47 388.312 1000.34 388.115 999.312 387.719C998.292 387.323 997.401 386.74 996.641 385.969C995.891 385.188 995.307 384.234 994.891 383.109C994.484 381.984 994.281 380.693 994.281 379.234C994.281 377.297 994.625 375.656 995.312 374.312C996 372.969 996.979 371.948 998.25 371.25C999.521 370.552 1001.04 370.203 1002.8 370.203C1004.43 370.203 1005.88 370.552 1007.14 371.25C1008.41 371.948 1009.41 372.969 1010.12 374.312C1010.85 375.656 1011.22 377.297 1011.22 379.234ZM999.141 379.234C999.141 380.38 999.266 381.344 999.516 382.125C999.766 382.906 1000.16 383.495 1000.69 383.891C1001.22 384.286 1001.91 384.484 1002.77 384.484C1003.61 384.484 1004.29 384.286 1004.81 383.891C1005.34 383.495 1005.73 382.906 1005.97 382.125C1006.22 381.344 1006.34 380.38 1006.34 379.234C1006.34 378.078 1006.22 377.12 1005.97 376.359C1005.73 375.589 1005.34 375.01 1004.81 374.625C1004.28 374.24 1003.59 374.047 1002.73 374.047C1001.47 374.047 1000.56 374.479 999.984 375.344C999.422 376.208 999.141 377.505 999.141 379.234ZM1019.92 388H1015.16V363.688H1019.92V388ZM1032.14 370.203C1033.76 370.203 1035.15 370.516 1036.31 371.141C1037.48 371.755 1038.38 372.651 1039.02 373.828C1039.65 375.005 1039.97 376.443 1039.97 378.141V380.453H1028.7C1028.76 381.797 1029.16 382.854 1029.91 383.625C1030.67 384.385 1031.72 384.766 1033.06 384.766C1034.18 384.766 1035.2 384.651 1036.12 384.422C1037.05 384.193 1038.01 383.849 1038.98 383.391V387.078C1038.12 387.505 1037.21 387.818 1036.27 388.016C1035.33 388.214 1034.19 388.312 1032.84 388.312C1031.09 388.312 1029.54 387.99 1028.19 387.344C1026.84 386.698 1025.79 385.714 1025.02 384.391C1024.26 383.068 1023.88 381.401 1023.88 379.391C1023.88 377.349 1024.22 375.651 1024.91 374.297C1025.6 372.932 1026.57 371.911 1027.81 371.234C1029.05 370.547 1030.49 370.203 1032.14 370.203ZM1032.17 373.594C1031.24 373.594 1030.47 373.891 1029.86 374.484C1029.26 375.078 1028.91 376.01 1028.81 377.281H1035.5C1035.49 376.573 1035.36 375.943 1035.11 375.391C1034.87 374.839 1034.51 374.401 1034.02 374.078C1033.54 373.755 1032.92 373.594 1032.17 373.594ZM1050.94 388.312C1049.21 388.312 1047.73 388 1046.52 387.375C1045.3 386.74 1044.37 385.76 1043.73 384.438C1043.1 383.115 1042.78 381.422 1042.78 379.359C1042.78 377.224 1043.14 375.484 1043.86 374.141C1044.59 372.786 1045.59 371.792 1046.88 371.156C1048.17 370.521 1049.66 370.203 1051.36 370.203C1052.57 370.203 1053.61 370.323 1054.48 370.562C1055.37 370.792 1056.14 371.068 1056.8 371.391L1055.39 375.078C1054.64 374.776 1053.94 374.531 1053.3 374.344C1052.65 374.146 1052.01 374.047 1051.36 374.047C1050.53 374.047 1049.83 374.245 1049.28 374.641C1048.73 375.026 1048.32 375.609 1048.05 376.391C1047.78 377.172 1047.64 378.151 1047.64 379.328C1047.64 380.484 1047.79 381.443 1048.08 382.203C1048.37 382.964 1048.79 383.531 1049.34 383.906C1049.9 384.271 1050.57 384.453 1051.36 384.453C1052.35 384.453 1053.23 384.323 1054 384.062C1054.77 383.792 1055.52 383.417 1056.25 382.938V387.016C1055.52 387.474 1054.76 387.802 1053.95 388C1053.16 388.208 1052.16 388.312 1050.94 388.312ZM1067.67 384.516C1068.19 384.516 1068.7 384.464 1069.19 384.359C1069.69 384.255 1070.18 384.125 1070.67 383.969V387.516C1070.16 387.745 1069.53 387.932 1068.77 388.078C1068.02 388.234 1067.19 388.312 1066.3 388.312C1065.26 388.312 1064.32 388.146 1063.48 387.812C1062.66 387.469 1062.01 386.88 1061.53 386.047C1061.06 385.203 1060.83 384.031 1060.83 382.531V374.109H1058.55V372.094L1061.17 370.5L1062.55 366.812H1065.59V370.531H1070.48V374.109H1065.59V382.531C1065.59 383.198 1065.78 383.698 1066.16 384.031C1066.54 384.354 1067.05 384.516 1067.67 384.516ZM1078.98 370.531V388H1074.22V370.531H1078.98ZM1076.61 363.688C1077.32 363.688 1077.93 363.854 1078.44 364.188C1078.95 364.51 1079.2 365.12 1079.2 366.016C1079.2 366.901 1078.95 367.516 1078.44 367.859C1077.93 368.193 1077.32 368.359 1076.61 368.359C1075.89 368.359 1075.28 368.193 1074.77 367.859C1074.27 367.516 1074.02 366.901 1074.02 366.016C1074.02 365.12 1074.27 364.51 1074.77 364.188C1075.28 363.854 1075.89 363.688 1076.61 363.688ZM1088.16 388L1081.5 370.531H1086.48L1089.86 380.484C1090.05 381.068 1090.19 381.682 1090.3 382.328C1090.41 382.974 1090.49 383.552 1090.53 384.062H1090.66C1090.69 383.51 1090.76 382.922 1090.88 382.297C1091 381.672 1091.16 381.068 1091.36 380.484L1094.72 370.531H1099.7L1093.05 388H1088.16ZM1109.38 370.172C1111.72 370.172 1113.52 370.682 1114.77 371.703C1116.02 372.724 1116.64 374.276 1116.64 376.359V388H1113.31L1112.39 385.625H1112.27C1111.77 386.25 1111.26 386.76 1110.73 387.156C1110.21 387.552 1109.61 387.844 1108.94 388.031C1108.26 388.219 1107.44 388.312 1106.47 388.312C1105.44 388.312 1104.51 388.115 1103.69 387.719C1102.88 387.323 1102.23 386.719 1101.77 385.906C1101.3 385.083 1101.06 384.042 1101.06 382.781C1101.06 380.927 1101.71 379.562 1103.02 378.688C1104.32 377.802 1106.27 377.312 1108.88 377.219L1111.91 377.125V376.359C1111.91 375.443 1111.67 374.771 1111.19 374.344C1110.71 373.917 1110.04 373.703 1109.19 373.703C1108.34 373.703 1107.52 373.823 1106.7 374.062C1105.89 374.302 1105.08 374.604 1104.27 374.969L1102.69 371.75C1103.61 371.26 1104.65 370.875 1105.8 370.594C1106.95 370.312 1108.15 370.172 1109.38 370.172ZM1111.91 379.906L1110.06 379.969C1108.52 380.01 1107.45 380.286 1106.84 380.797C1106.25 381.307 1105.95 381.979 1105.95 382.812C1105.95 383.542 1106.17 384.062 1106.59 384.375C1107.02 384.677 1107.58 384.828 1108.27 384.828C1109.29 384.828 1110.15 384.526 1110.84 383.922C1111.55 383.318 1111.91 382.458 1111.91 381.344V379.906Z" fill="black"/>
<g clip-path="url(#clip0_0_1)">
<path d="M345.585 115H161.415C124.183 115 94 145.372 94 182.838V368.162C94 405.628 124.183 436 161.415 436H345.585C382.817 436 413 405.628 413 368.162V182.838C413 145.372 382.817 115 345.585 115Z" fill="url(#paint0_linear_0_1)"/>
<path fill-rule="evenodd" clip-rule="evenodd" d="M223.119 176.135C208.248 176.135 195.67 185.811 190.991 199.202C184.562 199.524 178.354 201.667 173.084 205.386C167.813 209.105 163.695 214.247 161.203 220.219C158.768 226.13 158.026 232.609 159.061 238.922C153.104 243.716 148.566 250.059 145.939 257.265C143.312 264.47 142.696 272.262 144.159 279.795C146.067 289.535 151.341 298.281 159.046 304.482C158.168 309.958 158.621 315.566 160.365 320.827C162.11 326.088 165.094 330.846 169.064 334.694C175.006 340.401 182.794 343.76 190.999 344.156C196.315 359.365 211.476 369.056 227.585 366.924C239.092 365.395 248.533 358.111 253.5 348.26C258.467 358.119 267.908 365.395 279.415 366.924C295.517 369.056 310.692 359.365 316.001 344.156C324.206 343.759 331.993 340.4 337.936 334.694C341.906 330.846 344.89 326.088 346.635 320.827C348.379 315.566 348.832 309.958 347.954 304.482C355.659 298.281 360.933 289.535 362.841 279.795C364.304 272.262 363.688 264.47 361.061 257.265C358.434 250.059 353.896 243.716 347.939 238.922C348.927 232.723 348.304 226.257 345.797 220.219C343.305 214.248 339.186 209.106 333.915 205.387C328.645 201.669 322.438 199.524 316.009 199.202C311.33 185.819 298.752 176.135 283.881 176.135C270.589 176.135 259.151 183.9 253.5 195.09C247.849 183.9 236.411 176.135 223.119 176.135ZM223.119 183.778C237.846 183.778 249.702 195.709 249.702 210.528C249.7 210.612 249.7 210.696 249.702 210.78V332.813C249.709 338.941 247.621 344.884 243.79 349.647C239.959 354.41 234.617 357.703 228.66 358.973C222.704 360.243 216.494 359.414 211.072 356.625C205.651 353.835 201.347 349.255 198.883 343.652C199.779 343.484 200.683 343.346 201.579 343.116C202.553 342.855 203.384 342.215 203.889 341.337C204.394 340.459 204.531 339.416 204.271 338.436C204.012 337.455 203.375 336.619 202.503 336.111C201.631 335.602 200.593 335.464 199.619 335.725C195.2 336.912 190.552 336.934 186.122 335.788C181.692 334.642 177.63 332.367 174.327 329.183C171.65 326.584 169.545 323.448 168.15 319.977C166.755 316.506 166.101 312.778 166.231 309.037C168.798 310.351 171.471 311.521 174.327 312.285C175.3 312.549 176.337 312.413 177.21 311.907C178.084 311.401 178.721 310.566 178.983 309.587C179.245 308.608 179.11 307.564 178.607 306.686C178.104 305.807 177.275 305.165 176.302 304.902C170.456 303.336 165.129 300.235 160.866 295.915C156.604 291.595 153.559 286.212 152.045 280.318C150.531 274.424 150.602 268.231 152.249 262.374C153.897 256.516 157.063 251.205 161.423 246.984C163.101 250.928 165.441 254.635 168.57 257.792C168.92 258.157 169.339 258.448 169.803 258.648C170.266 258.849 170.764 258.954 171.269 258.958C171.773 258.962 172.273 258.866 172.74 258.673C173.206 258.481 173.63 258.197 173.987 257.838C174.344 257.48 174.625 257.053 174.816 256.584C175.007 256.114 175.103 255.611 175.099 255.104C175.095 254.597 174.99 254.094 174.791 253.628C174.592 253.162 174.303 252.741 173.94 252.388C170.425 248.857 167.965 244.406 166.836 239.539C165.708 234.673 165.958 229.585 167.556 224.853C169.155 220.122 172.04 215.937 175.882 212.771C179.725 209.605 184.373 207.587 189.297 206.944C189.168 208.136 188.94 209.305 188.94 210.528C188.94 211.542 189.341 212.513 190.053 213.23C190.765 213.947 191.731 214.35 192.738 214.35C193.745 214.35 194.711 213.947 195.423 213.23C196.136 212.513 196.536 211.542 196.536 210.528C196.536 195.709 208.392 183.778 223.119 183.778ZM283.881 183.778C298.608 183.778 310.464 195.709 310.464 210.528C310.464 211.542 310.864 212.513 311.577 213.23C312.289 213.947 313.255 214.35 314.262 214.35C315.269 214.35 316.235 213.947 316.947 213.23C317.659 212.513 318.06 211.542 318.06 210.528C318.06 209.305 317.832 208.136 317.703 206.944C322.631 207.581 327.282 209.597 331.129 212.762C334.975 215.927 337.862 220.114 339.462 224.848C341.061 229.581 341.31 234.671 340.178 239.539C339.046 244.408 336.58 248.86 333.06 252.388C332.697 252.741 332.408 253.162 332.209 253.628C332.01 254.094 331.905 254.597 331.901 255.104C331.896 255.611 331.993 256.114 332.184 256.584C332.374 257.053 332.656 257.48 333.013 257.838C333.37 258.197 333.794 258.481 334.26 258.673C334.727 258.866 335.227 258.962 335.731 258.958C336.236 258.954 336.734 258.849 337.197 258.648C337.661 258.448 338.08 258.157 338.43 257.792C341.559 254.635 343.899 250.928 345.577 246.984C349.937 251.205 353.103 256.516 354.751 262.374C356.398 268.231 356.469 274.424 354.955 280.318C353.441 286.212 350.396 291.595 346.134 295.915C341.871 300.235 336.544 303.336 330.698 304.902C329.725 305.165 328.896 305.807 328.393 306.686C327.89 307.564 327.755 308.608 328.017 309.587C328.279 310.566 328.916 311.401 329.79 311.907C330.663 312.413 331.7 312.549 332.673 312.285C335.529 311.521 338.202 310.351 340.769 309.037C340.899 312.778 340.245 316.506 338.85 319.977C337.455 323.448 335.35 326.584 332.673 329.183C329.37 332.367 325.308 334.642 320.878 335.788C316.448 336.934 311.8 336.912 307.381 335.725C306.407 335.464 305.369 335.602 304.497 336.111C303.624 336.619 302.988 337.455 302.729 338.436C302.469 339.416 302.606 340.459 303.111 341.337C303.616 342.215 304.447 342.855 305.421 343.116C306.317 343.361 307.221 343.491 308.117 343.652C305.653 349.255 301.349 353.835 295.928 356.625C290.506 359.414 284.296 360.243 278.34 358.973C272.383 357.703 267.041 354.41 263.21 349.647C259.379 344.884 257.291 338.941 257.298 332.813V210.528C257.298 195.701 269.154 183.778 283.881 183.778ZM222.739 191.421C221.732 191.472 220.786 191.923 220.11 192.675C219.433 193.428 219.081 194.42 219.132 195.433C219.182 196.447 219.63 197.399 220.378 198.08C221.126 198.761 222.112 199.115 223.119 199.064C229.453 199.064 234.512 204.154 234.512 210.528C234.512 211.542 234.912 212.513 235.624 213.23C236.336 213.947 237.302 214.35 238.31 214.35C239.317 214.35 240.283 213.947 240.995 213.23C241.707 212.513 242.107 211.542 242.107 210.528C242.107 200.019 233.562 191.421 223.119 191.421C222.993 191.415 222.866 191.415 222.739 191.421ZM283.881 191.421C278.85 191.437 274.03 193.455 270.472 197.035C266.915 200.615 264.909 205.466 264.893 210.528C264.893 211.542 265.293 212.513 266.005 213.23C266.717 213.947 267.683 214.35 268.69 214.35C269.698 214.35 270.664 213.947 271.376 213.23C272.088 212.513 272.488 211.542 272.488 210.528C272.488 204.154 277.547 199.064 283.881 199.064C284.888 199.064 285.854 198.661 286.566 197.944C287.278 197.228 287.679 196.256 287.679 195.243C287.679 194.229 287.278 193.257 286.566 192.54C285.854 191.824 284.888 191.421 283.881 191.421ZM194.963 220.846C194.357 220.84 193.758 220.979 193.216 221.253C192.675 221.527 192.206 221.928 191.85 222.422C191.494 222.916 191.26 223.489 191.169 224.092C191.078 224.695 191.131 225.312 191.325 225.89C192.115 228.275 193.239 230.491 194.5 232.616C190.131 231.988 185.692 232.061 181.345 232.83C180.854 232.921 180.386 233.107 179.967 233.38C179.548 233.652 179.187 234.004 178.903 234.417C178.62 234.83 178.42 235.296 178.315 235.787C178.21 236.278 178.202 236.784 178.292 237.278C178.382 237.772 178.567 238.243 178.838 238.665C179.109 239.087 179.459 239.45 179.87 239.735C180.28 240.021 180.743 240.222 181.23 240.328C181.718 240.433 182.222 240.44 182.712 240.35C190.699 238.859 198.952 240.288 205.984 244.379C206.051 244.421 206.12 244.462 206.189 244.501C206.215 244.501 206.24 244.501 206.265 244.501C206.335 244.539 206.406 244.574 206.478 244.607C206.506 244.607 206.534 244.607 206.561 244.607C206.664 244.647 206.768 244.683 206.873 244.714C206.893 244.715 206.913 244.715 206.934 244.714C207.021 244.743 207.11 244.769 207.199 244.791C207.357 244.827 207.517 244.852 207.678 244.867C208.148 244.896 208.619 244.837 209.068 244.692C209.103 244.693 209.139 244.693 209.174 244.692C209.379 244.62 209.577 244.53 209.767 244.424C209.797 244.399 209.828 244.374 209.858 244.348C210.046 244.236 210.223 244.108 210.389 243.965C210.42 243.94 210.451 243.915 210.481 243.889C210.546 243.825 210.61 243.759 210.67 243.69C210.696 243.665 210.721 243.639 210.746 243.614C210.887 243.451 211.014 243.278 211.126 243.094C211.149 243.064 211.172 243.033 211.195 243.002C211.24 242.928 211.283 242.851 211.324 242.773C211.339 242.74 211.354 242.707 211.369 242.674C211.463 242.472 211.539 242.262 211.597 242.047C211.605 242.017 211.613 241.986 211.62 241.956C211.644 241.862 211.664 241.768 211.681 241.673C211.686 241.637 211.691 241.601 211.696 241.566C211.725 241.348 211.735 241.128 211.726 240.909C211.727 240.873 211.727 240.837 211.726 240.802C211.72 240.707 211.709 240.613 211.696 240.519C211.691 240.488 211.686 240.457 211.681 240.427C211.625 240.083 211.523 239.749 211.377 239.433C211.36 239.402 211.342 239.372 211.324 239.342C211.284 239.256 211.241 239.172 211.195 239.09C211.18 239.064 211.164 239.038 211.149 239.013C211.096 238.932 211.041 238.853 210.982 238.776C210.964 238.75 210.947 238.725 210.929 238.7C210.871 238.621 210.81 238.544 210.746 238.47C210.726 238.444 210.706 238.419 210.686 238.394C210.619 238.33 210.551 238.269 210.481 238.211C210.456 238.185 210.43 238.159 210.405 238.134C210.331 238.073 210.255 238.014 210.177 237.958C210.154 237.932 210.132 237.907 210.108 237.881C210.032 237.828 209.953 237.777 209.873 237.729C204.533 234.441 200.52 229.36 198.541 223.383C198.293 222.623 197.814 221.961 197.173 221.489C196.531 221.018 195.758 220.76 194.963 220.754V220.846ZM312.036 220.846C311.244 220.854 310.474 221.111 309.834 221.581C309.193 222.051 308.716 222.71 308.467 223.467C306.486 229.445 302.469 234.526 297.127 237.813C297.091 237.838 297.056 237.864 297.021 237.89C296.977 237.914 296.934 237.94 296.892 237.966C296.866 237.991 296.841 238.017 296.816 238.043C296.737 238.098 296.661 238.157 296.588 238.218C296.544 238.258 296.501 238.299 296.459 238.34C296.407 238.385 296.356 238.43 296.307 238.478C296.289 238.503 296.271 238.528 296.254 238.554C296.19 238.628 296.129 238.705 296.071 238.784C296.019 238.848 295.968 238.914 295.919 238.982C295.893 239.033 295.868 239.084 295.843 239.135C295.801 239.195 295.761 239.257 295.722 239.319C295.701 239.365 295.681 239.41 295.661 239.456C295.646 239.482 295.63 239.507 295.616 239.533C295.468 239.856 295.366 240.197 295.312 240.549C295.308 240.6 295.306 240.651 295.304 240.702C295.293 240.76 295.283 240.819 295.274 240.878C295.273 240.914 295.273 240.949 295.274 240.984C295.266 241.225 295.282 241.465 295.319 241.703C295.328 241.754 295.339 241.805 295.35 241.856C295.359 241.915 295.369 241.974 295.38 242.032C295.39 242.063 295.4 242.093 295.411 242.124C295.472 242.36 295.556 242.591 295.661 242.811C295.686 242.852 295.711 242.893 295.737 242.933C295.761 242.985 295.787 243.036 295.813 243.086C295.83 243.117 295.848 243.148 295.866 243.179C295.98 243.363 296.11 243.537 296.254 243.698C296.279 243.724 296.304 243.75 296.33 243.775C296.391 243.841 296.454 243.904 296.519 243.965C296.549 243.991 296.58 244.017 296.611 244.042C296.776 244.187 296.954 244.318 297.142 244.432C297.172 244.458 297.203 244.483 297.233 244.508C297.46 244.634 297.7 244.737 297.947 244.814C298.391 244.957 298.857 245.016 299.322 244.99C299.483 244.974 299.643 244.949 299.801 244.913C299.89 244.891 299.979 244.865 300.066 244.837C300.102 244.837 300.137 244.837 300.173 244.837C300.262 244.809 300.351 244.779 300.439 244.745C300.469 244.746 300.499 244.746 300.53 244.745C300.615 244.708 300.698 244.667 300.78 244.623C300.809 244.598 300.836 244.572 300.864 244.547C300.915 244.517 300.966 244.487 301.016 244.455H301.077C301.087 244.455 301.097 244.455 301.107 244.455C308.123 240.411 316.336 239 324.288 240.473C324.786 240.564 325.298 240.554 325.793 240.445C326.288 240.337 326.757 240.131 327.173 239.84C327.589 239.549 327.944 239.178 328.218 238.749C328.492 238.32 328.679 237.841 328.769 237.339C328.859 236.838 328.849 236.322 328.741 235.824C328.633 235.326 328.429 234.855 328.14 234.436C327.851 234.017 327.482 233.66 327.056 233.385C326.63 233.109 326.153 232.921 325.655 232.83C321.308 232.061 316.868 231.991 312.5 232.623C313.761 230.491 314.885 228.275 315.675 225.89C315.869 225.312 315.922 224.695 315.831 224.092C315.74 223.489 315.506 222.916 315.15 222.422C314.794 221.928 314.325 221.527 313.784 221.253C313.242 220.979 312.643 220.84 312.036 220.846ZM226.97 235.321C226.311 235.347 225.671 235.545 225.111 235.895C224.552 236.245 224.092 236.735 223.778 237.318C223.464 237.901 223.306 238.556 223.319 239.219C223.333 239.882 223.518 240.53 223.856 241.099C226.37 245.47 227.379 250.555 226.725 255.563C226.071 260.571 223.792 265.22 220.24 268.79C219.878 269.142 219.588 269.563 219.389 270.03C219.19 270.496 219.086 270.998 219.081 271.506C219.077 272.013 219.173 272.516 219.364 272.985C219.555 273.455 219.837 273.881 220.193 274.24C220.55 274.599 220.974 274.883 221.441 275.075C221.907 275.267 222.407 275.364 222.912 275.36C223.416 275.355 223.914 275.25 224.378 275.05C224.841 274.85 225.26 274.558 225.61 274.193C230.336 269.43 233.37 263.233 234.245 256.56C235.119 249.888 233.785 243.111 230.448 237.278C230.106 236.661 229.601 236.151 228.988 235.806C228.375 235.46 227.672 235.293 226.97 235.321ZM279.635 235.321C278.999 235.361 278.384 235.562 277.845 235.904C277.306 236.245 276.861 236.718 276.552 237.278C273.215 243.111 271.881 249.888 272.755 256.56C273.63 263.233 276.664 269.43 281.39 274.193C281.74 274.558 282.159 274.85 282.622 275.05C283.086 275.25 283.584 275.355 284.088 275.36C284.593 275.364 285.093 275.267 285.559 275.075C286.026 274.883 286.45 274.599 286.807 274.24C287.163 273.881 287.445 273.455 287.636 272.985C287.827 272.516 287.923 272.013 287.919 271.506C287.914 270.998 287.81 270.496 287.611 270.03C287.412 269.563 287.122 269.142 286.76 268.79C283.207 265.221 280.926 260.572 280.271 255.564C279.616 250.556 280.623 245.471 283.137 241.099C283.474 240.53 283.659 239.882 283.673 239.219C283.687 238.556 283.529 237.901 283.214 237.318C282.9 236.735 282.441 236.245 281.881 235.895C281.322 235.545 280.681 235.347 280.023 235.321C279.896 235.315 279.762 235.315 279.635 235.321ZM163.345 270.899C163.218 270.893 163.091 270.893 162.965 270.899C162.404 270.943 161.86 271.112 161.373 271.394C160.885 271.675 160.465 272.061 160.144 272.525C159.823 272.99 159.608 273.521 159.515 274.079C159.423 274.637 159.454 275.208 159.608 275.752C160.987 280.94 163.698 285.671 167.469 289.471C167.819 289.836 168.238 290.127 168.701 290.327C169.165 290.527 169.663 290.633 170.167 290.638C170.672 290.642 171.172 290.545 171.638 290.353C172.105 290.161 172.529 289.877 172.886 289.518C173.242 289.159 173.524 288.733 173.715 288.263C173.906 287.794 174.002 287.29 173.998 286.783C173.993 286.275 173.889 285.774 173.69 285.308C173.491 284.842 173.201 284.42 172.839 284.068C170.009 281.219 167.973 277.671 166.937 273.78C166.733 272.971 166.272 272.252 165.623 271.731C164.974 271.211 164.174 270.919 163.345 270.899ZM343.671 270.899C342.838 270.92 342.036 271.215 341.387 271.74C340.737 272.264 340.278 272.99 340.078 273.803C339.041 277.691 337.005 281.236 334.177 284.083C333.814 284.435 333.525 284.857 333.326 285.324C333.127 285.79 333.022 286.291 333.017 286.799C333.013 287.306 333.109 287.809 333.3 288.278C333.491 288.748 333.773 289.175 334.13 289.534C334.486 289.893 334.91 290.176 335.377 290.368C335.844 290.56 336.344 290.657 336.848 290.653C337.352 290.648 337.85 290.543 338.314 290.343C338.777 290.143 339.196 289.852 339.546 289.487C343.317 285.686 346.028 280.955 347.407 275.767C347.561 275.224 347.593 274.653 347.5 274.095C347.408 273.538 347.194 273.008 346.874 272.544C346.553 272.08 346.134 271.692 345.648 271.41C345.161 271.129 344.618 270.959 344.058 270.914C343.931 270.908 343.805 270.908 343.678 270.914L343.671 270.899ZM215.562 306.072C215.215 306.07 214.87 306.116 214.536 306.209C214.531 306.209 214.526 306.209 214.521 306.209C214.491 306.209 214.46 306.209 214.43 306.209C214.34 306.236 214.252 306.267 214.164 306.3C213.975 306.375 213.792 306.464 213.617 306.568C213.607 306.568 213.597 306.568 213.587 306.568C206.551 310.65 198.302 312.077 190.315 310.596C189.82 310.506 189.313 310.514 188.822 310.621C188.33 310.728 187.864 310.932 187.451 311.22C187.038 311.508 186.685 311.875 186.413 312.3C186.14 312.726 185.954 313.201 185.864 313.699C185.775 314.197 185.783 314.707 185.89 315.202C185.996 315.696 186.198 316.165 186.484 316.581C186.771 316.997 187.136 317.352 187.558 317.626C187.981 317.9 188.453 318.088 188.948 318.178C193.331 318.988 197.759 318.965 202.103 318.368C200.842 320.501 199.718 322.725 198.928 325.117C198.61 326.08 198.685 327.131 199.136 328.039C199.588 328.946 200.379 329.636 201.336 329.956C202.293 330.276 203.337 330.2 204.238 329.746C205.14 329.292 205.825 328.496 206.144 327.533C208.111 321.587 212.091 316.527 217.385 313.241C217.405 313.216 217.425 313.19 217.445 313.164C217.453 313.149 217.468 313.164 217.476 313.164C217.556 313.116 217.635 313.065 217.711 313.011C217.737 312.986 217.762 312.961 217.787 312.935C217.865 312.877 217.941 312.815 218.015 312.751C218.038 312.726 218.061 312.7 218.083 312.674C218.154 312.613 218.222 312.55 218.288 312.484C218.294 312.484 218.299 312.484 218.304 312.484C218.814 311.943 219.155 311.263 219.286 310.529C219.417 309.794 219.331 309.038 219.039 308.352C218.748 307.666 218.263 307.081 217.645 306.669C217.027 306.257 216.303 306.036 215.562 306.034V306.072ZM291.286 306.072C290.559 306.105 289.856 306.347 289.261 306.771C288.667 307.194 288.206 307.781 287.934 308.461C287.662 309.141 287.589 309.885 287.726 310.605C287.863 311.325 288.202 311.991 288.704 312.522C288.712 312.522 288.719 312.522 288.727 312.522C288.752 312.548 288.777 312.573 288.803 312.598C288.935 312.733 289.077 312.859 289.228 312.973C289.338 313.053 289.452 313.126 289.57 313.194C294.896 316.491 298.897 321.57 300.871 327.54C301.03 328.017 301.279 328.458 301.607 328.837C301.934 329.217 302.333 329.528 302.779 329.752C303.226 329.977 303.713 330.111 304.211 330.146C304.709 330.182 305.209 330.119 305.683 329.96C306.157 329.8 306.595 329.549 306.972 329.22C307.349 328.89 307.658 328.489 307.882 328.04C308.105 327.59 308.238 327.1 308.273 326.599C308.308 326.098 308.245 325.594 308.087 325.117C307.276 322.758 306.211 320.495 304.912 318.368C309.28 319.004 313.72 318.94 318.067 318.178C318.559 318.088 319.028 317.9 319.448 317.628C319.868 317.355 320.23 317.001 320.515 316.587C320.799 316.174 320.999 315.708 321.105 315.216C321.21 314.724 321.218 314.217 321.128 313.722C321.038 313.227 320.852 312.755 320.581 312.332C320.31 311.91 319.959 311.545 319.548 311.259C319.137 310.973 318.674 310.772 318.185 310.666C317.696 310.56 317.192 310.551 316.7 310.642C308.714 312.133 300.461 310.704 293.428 306.614C293.418 306.614 293.408 306.614 293.398 306.614C293.223 306.51 293.04 306.42 292.851 306.346C292.763 306.312 292.675 306.282 292.585 306.255C292.55 306.254 292.514 306.254 292.479 306.255C292.474 306.255 292.469 306.255 292.464 306.255C292.225 306.19 291.981 306.149 291.734 306.133C291.588 306.124 291.441 306.124 291.294 306.133L291.286 306.072ZM238.256 328.954C237.252 328.97 236.294 329.386 235.594 330.111C234.894 330.836 234.507 331.811 234.519 332.822C234.519 339.196 229.461 344.286 223.127 344.286C222.119 344.286 221.153 344.688 220.441 345.405C219.729 346.121 219.329 347.094 219.329 348.108C219.329 349.121 219.729 350.093 220.441 350.809C221.153 351.526 222.119 351.929 223.127 351.929C233.57 351.929 242.115 343.331 242.115 332.822C242.121 332.311 242.025 331.804 241.833 331.331C241.641 330.858 241.357 330.428 240.997 330.068C240.638 329.707 240.21 329.423 239.739 329.232C239.268 329.041 238.764 328.946 238.256 328.954ZM268.387 328.954C267.426 329.033 266.532 329.478 265.885 330.196C265.238 330.914 264.886 331.853 264.9 332.822C264.9 343.331 273.445 351.929 283.889 351.929C284.896 351.929 285.862 351.526 286.574 350.809C287.286 350.093 287.686 349.121 287.686 348.108C287.686 347.094 287.286 346.121 286.574 345.405C285.862 344.688 284.896 344.286 283.889 344.286C277.554 344.286 272.496 339.196 272.496 332.822C272.508 331.811 272.121 330.836 271.421 330.111C270.721 329.386 269.763 328.97 268.759 328.954C268.635 328.948 268.511 328.948 268.387 328.954Z" fill="white"/>
</g>
<defs>
<linearGradient id="paint0_linear_0_1" x1="134.131" y1="117.549" x2="385.671" y2="426.384" gradientUnits="userSpaceOnUse">
<stop stop-color="#FFD800"/>
<stop offset="1" stop-color="#FF6100"/>
</linearGradient>
<clipPath id="clip0_0_1">
<rect width="319" height="321" fill="white" transform="translate(94 115)"/>
</clipPath>
</defs>
</svg>
